<svg width="151" height="150" viewBox="0 0 151 150" fill="none" xmlns="http://www.w3.org/2000/svg">
<rect x="3.33325" y="3" width="144" height="144" rx="72" fill="white"/>
<rect x="3.33325" y="3" width="144" height="144" rx="72" stroke="#FFB974" stroke-width="6"/>
<path fill-rule="evenodd" clip-rule="evenodd" d="M44.3333 44.9866C44.3333 39.4671 48.8138 34.9983 54.3333 34.9983H96.3333C101.853 34.9983 106.333 39.4671 106.333 44.9866V104.995C106.333 113.639 96.0952 118.194 89.6572 112.432L79.3413 103.194C77.0601 101.151 73.6069 101.151 71.3257 103.194L61.0097 112.432C54.5722 118.194 44.3337 113.639 44.3337 104.995L44.3333 44.9866ZM54.3333 38.9983C51.0169 38.9983 48.3333 41.6819 48.3333 44.9866V104.995C48.3333 110.17 54.4739 112.916 58.3413 109.452L68.6573 100.213C72.4581 96.811 78.208 96.811 82.0093 100.213L92.3252 109.452C96.1924 112.916 102.333 110.17 102.333 104.995V44.9866C102.333 41.6819 99.6497 38.9983 96.3333 38.9983H54.3333ZM56.3841 63.4003C57.2942 54.6034 66.1966 51.8733 71.6221 55.5995C73.2041 56.6854 74.458 57.7206 75.333 58.5057C76.208 57.7205 77.4619 56.6854 79.0439 55.5995C84.4697 51.8729 93.3719 54.6034 94.2819 63.4003C94.7467 67.8964 92.0514 72.2753 88.6686 75.9203C85.2077 79.6469 80.6217 83.0414 76.3796 85.643C75.735 86.0375 74.9304 86.0375 74.2858 85.643C70.0436 83.0414 65.4577 79.6469 61.9968 75.9203C58.614 72.2758 55.9193 67.8969 56.3841 63.4003ZM76.8021 62.6308L76.8099 62.623C76.8177 62.6151 76.8333 62.5956 76.8567 62.5761C76.8997 62.5292 76.97 62.455 77.0677 62.3612C77.2591 62.1698 77.5482 61.8886 77.9349 61.5448C78.7083 60.8495 79.849 59.9003 81.3099 58.8964C84.3958 56.7753 89.7279 58.2324 90.3021 63.8105C90.5794 66.498 88.9466 69.7402 85.7396 73.1972C82.8763 76.2792 79.0677 79.1972 75.3336 81.58C71.5992 79.1972 67.7906 76.2792 64.9276 73.1972C61.7206 69.7402 60.0878 66.498 60.3651 63.8105C60.9393 58.2324 66.2713 56.7753 69.3573 58.8964C70.8182 59.9003 71.9589 60.8495 72.7323 61.5448C73.119 61.8886 73.4081 62.1698 73.5995 62.3612C73.6971 62.455 73.7674 62.5292 73.8104 62.5761C73.8338 62.5956 73.8495 62.6151 73.8573 62.623L73.8651 62.6308C74.244 63.0409 74.7752 63.2753 75.3339 63.2753C75.8925 63.2753 76.423 63.0409 76.8021 62.6308Z" fill="#FF7E00"/>
</svg>
