<svg width="220" height="66" viewBox="0 0 220 66" fill="none" xmlns="http://www.w3.org/2000/svg">
<path d="M218.541 57.4897C218.541 58.3101 218.379 59.1225 218.065 59.8804C217.751 60.6382 217.29 61.3268 216.709 61.9066C216.129 62.4864 215.44 62.9461 214.681 63.2595C213.923 63.5729 213.11 63.7337 212.289 63.7329H7.71071C6.05259 63.7346 4.46167 63.0779 3.28782 61.9071C2.11398 60.7363 1.45333 59.1474 1.45117 57.4897V7.70216C1.45333 6.04373 2.11372 4.45394 3.28733 3.28187C4.46094 2.10979 6.05184 1.45124 7.71071 1.45081H212.288C213.109 1.45081 213.922 1.61251 214.68 1.92669C215.439 2.24087 216.128 2.70137 216.709 3.28188C217.289 3.8624 217.75 4.55155 218.064 5.30999C218.378 6.06843 218.539 6.8813 218.539 7.70216L218.541 57.4897Z" fill="white"/>
<path d="M212.289 65.1852H7.71069C5.66808 65.1848 3.70906 64.3743 2.26349 62.9316C0.817924 61.4888 0.00388653 59.5317 0 57.4897L0 7.70376C0.00302175 5.66067 0.816522 3.70221 2.26204 2.25799C3.70756 0.813766 5.66706 0.00172444 7.71069 0L212.288 0C214.331 0.00258489 216.29 0.814903 217.735 2.25894C219.181 3.70297 219.994 5.66094 219.998 7.70376V57.4897C220.002 61.7344 216.537 65.1852 212.289 65.1852Z" fill="#A6A6A6"/>
<path d="M218.541 57.4897C218.541 58.3101 218.379 59.1225 218.065 59.8804C217.751 60.6382 217.29 61.3268 216.709 61.9066C216.129 62.4864 215.44 62.9461 214.681 63.2595C213.923 63.5729 213.11 63.7337 212.289 63.7329H7.71071C6.05259 63.7346 4.46167 63.0779 3.28782 61.9071C2.11398 60.7363 1.45333 59.1474 1.45117 57.4897V7.70216C1.45333 6.04373 2.11372 4.45394 3.28733 3.28187C4.46094 2.10979 6.05184 1.45124 7.71071 1.45081H212.288C213.109 1.45081 213.922 1.61251 214.68 1.92669C215.439 2.24087 216.128 2.70137 216.709 3.28188C217.289 3.8624 217.75 4.55155 218.064 5.30999C218.378 6.06843 218.539 6.8813 218.539 7.70216L218.541 57.4897Z" fill="black"/>
<path d="M49.124 32.2495C49.0767 26.9958 53.4269 24.4398 53.6258 24.3208C51.1621 20.7297 47.3435 20.2391 46.0016 20.2C42.7944 19.8625 39.6833 22.1186 38.0496 22.1186C36.3832 22.1186 33.8673 20.2326 31.1558 20.288C27.6665 20.3418 24.4022 22.3614 22.6119 25.4977C18.9171 31.8925 21.6727 41.2899 25.2126 46.4589C26.9833 48.9921 29.0524 51.817 31.7607 51.7175C34.4103 51.61 35.4 50.0304 38.5974 50.0304C41.7655 50.0304 42.6949 51.7175 45.457 51.654C48.3006 51.61 50.0909 49.1111 51.7997 46.5567C53.846 43.6568 54.6677 40.7976 54.7003 40.6509C54.6351 40.6281 49.1794 38.5449 49.124 32.2495ZM43.9064 16.7996C45.3314 15.0179 46.3065 12.594 46.0358 10.1342C43.9732 10.2255 41.3937 11.5605 39.9083 13.3031C38.5942 14.8386 37.4202 17.3555 37.7235 19.7223C40.0404 19.8951 42.4193 18.5536 43.9064 16.7996Z" fill="white"/>
<path d="M212.289 0H102.711L145.631 65.1852H212.289C214.332 65.1835 216.291 64.3719 217.737 62.9284C219.182 61.4849 219.996 59.5273 220 57.4848V7.70376C219.997 5.66081 219.183 3.70259 217.737 2.25846C216.292 0.814335 214.333 0.00215483 212.289 0Z" fill="url(#paint0_linear_104_341)"/>
<path d="M87.5014 51.354H83.7985L81.7702 44.982H74.7198L72.7877 51.354H69.1826L76.1694 29.6609H80.4837L87.5014 51.354ZM81.1587 42.3087L79.3244 36.6442C79.1304 36.0655 78.7651 34.7027 78.2303 32.5576H78.1651C77.9499 33.4802 77.6058 34.8429 77.1346 36.6442L75.3313 42.3087H81.1587ZM105.434 43.3405C105.434 46.0008 104.711 48.1036 103.265 49.6473C101.971 51.0215 100.361 51.7077 98.4421 51.7077C96.3698 51.7077 94.8795 50.9693 93.9745 49.4892V57.6966H90.4983V40.853C90.4983 39.1822 90.4543 37.469 90.3695 35.7118H93.4267L93.6207 38.1911H93.6859C94.8452 36.323 96.6046 35.389 98.9655 35.389C100.811 35.389 102.352 36.1177 103.585 37.5766C104.816 39.0388 105.434 40.959 105.434 43.3405ZM101.892 43.4677C101.892 41.9452 101.55 40.69 100.862 39.7006C100.11 38.672 99.1009 38.1569 97.8356 38.1569C96.9779 38.1569 96.1986 38.4438 95.5023 39.0094C94.8045 39.5799 94.3479 40.3249 94.1343 41.2475C94.039 41.5926 93.9848 41.9477 93.9729 42.3054V44.9152C93.9729 46.0514 94.3218 47.0115 95.0197 47.7972C95.7176 48.5796 96.6241 48.9725 97.7394 48.9725C99.0487 48.9725 100.068 48.4655 100.797 47.4597C101.527 46.4507 101.892 45.1206 101.892 43.4677ZM123.43 43.3405C123.43 46.0008 122.707 48.1036 121.261 49.6473C119.965 51.0215 118.357 51.7077 116.436 51.7077C114.364 51.7077 112.874 50.9693 111.969 49.4892V57.6966H108.493V40.853C108.493 39.1822 108.449 37.469 108.364 35.7118H111.421L111.615 38.1911H111.68C112.838 36.323 114.597 35.389 116.96 35.389C118.804 35.389 120.345 36.1177 121.581 37.5766C122.81 39.0388 123.43 40.959 123.43 43.3405ZM119.887 43.4677C119.887 41.9452 119.543 40.69 118.855 39.7006C118.103 38.672 117.097 38.1569 115.832 38.1569C114.974 38.1569 114.195 38.4438 113.495 39.0094C112.797 39.5799 112.342 40.3249 112.129 41.2475C112.023 41.6779 111.966 42.0283 111.966 42.3054V44.9152C111.966 46.0514 112.316 47.0115 113.011 47.7972C113.709 48.578 114.615 48.9725 115.734 48.9725C117.045 48.9725 118.064 48.4655 118.791 47.4597C119.521 46.4507 119.887 45.1206 119.887 43.4677ZM143.55 45.2689C143.55 47.1158 142.905 48.6171 141.621 49.7761C140.209 51.041 138.238 51.6751 135.711 51.6751C133.376 51.6751 131.504 51.2252 130.092 50.3238L130.896 47.4271C132.42 48.3302 134.095 48.7801 135.918 48.7801C137.229 48.7801 138.248 48.4834 138.975 47.895C139.704 47.3049 140.072 46.5159 140.072 45.5314C140.072 44.6495 139.767 43.9111 139.169 43.3096C138.567 42.7097 137.573 42.1506 136.175 41.6371C132.376 40.2206 130.475 38.1487 130.475 35.4232C130.475 33.6432 131.147 32.1859 132.487 31.0465C133.827 29.9087 135.605 29.3398 137.816 29.3398C139.79 29.3398 141.435 29.6837 142.742 30.37L141.869 33.2031C140.64 32.538 139.252 32.2055 137.7 32.2055C136.474 32.2055 135.512 32.507 134.824 33.1069C134.245 33.6432 133.951 34.2969 133.951 35.0728C133.951 35.9286 134.286 36.6393 134.951 37.1968C135.528 37.7102 136.581 38.2694 138.104 38.8692C139.973 39.6223 141.346 40.4993 142.225 41.5067C143.11 42.5141 143.55 43.7709 143.55 45.2689ZM155.073 38.3199H151.241V45.9144C151.241 47.8461 151.916 48.8095 153.27 48.8095C153.891 48.8095 154.406 48.7573 154.814 48.6481L154.91 51.2872C154.225 51.5431 153.324 51.6719 152.207 51.6719C150.834 51.6719 149.761 51.2529 148.986 50.4151C148.215 49.5772 147.827 48.1737 147.827 46.1981V38.3134H145.544V35.7052H147.827V32.8412L151.241 31.811V35.7052H155.073V38.3199ZM172.327 43.4041C172.327 45.8085 171.639 47.7825 170.266 49.3262C168.83 50.9155 166.919 51.7077 164.537 51.7077C162.238 51.7077 160.41 50.9465 159.047 49.4256C157.684 47.9015 157.002 45.9813 157.002 43.6649C157.002 41.241 157.706 39.2556 159.11 37.7119C160.517 36.1666 162.412 35.3939 164.794 35.3939C167.09 35.3939 168.934 36.1568 170.33 37.6793C171.664 39.1561 172.327 41.0633 172.327 43.4041ZM168.724 43.484C168.724 42.0511 168.414 40.8221 167.793 39.7935C167.064 38.5514 166.02 37.9303 164.669 37.9303C163.276 37.9303 162.208 38.5514 161.481 39.7935C160.858 40.8221 160.548 42.0723 160.548 43.5492C160.548 44.9837 160.858 46.216 161.481 47.2413C162.233 48.4834 163.281 49.1045 164.639 49.1045C165.968 49.1045 167.01 48.4704 167.763 47.2103C168.402 46.1573 168.724 44.9201 168.724 43.484ZM183.631 38.7682C183.27 38.7029 182.903 38.6707 182.536 38.672C181.313 38.672 180.367 39.1317 179.702 40.0576C179.125 40.8726 178.835 41.9028 178.835 43.1466V51.354H175.358V40.6379C175.361 38.9958 175.328 37.3539 175.257 35.7134H178.285L178.412 38.7062H178.508C178.877 37.6776 179.454 36.8479 180.247 36.2269C180.972 35.6842 181.853 35.3903 182.759 35.389C183.08 35.389 183.371 35.4118 183.628 35.4526L183.631 38.7682ZM199.178 42.7928C199.187 43.3211 199.145 43.849 199.051 44.3691H188.622C188.662 45.9144 189.167 47.0979 190.136 47.9129C191.014 48.6399 192.151 49.0051 193.547 49.0051C195.091 49.0051 196.499 48.7605 197.766 48.2666L198.311 50.6775C196.83 51.323 195.083 51.6442 193.066 51.6442C190.639 51.6442 188.735 50.9302 187.349 49.5055C185.966 48.0792 185.273 46.1622 185.273 43.7611C185.273 41.404 185.917 39.4398 187.207 37.8732C188.557 36.2008 190.382 35.3646 192.678 35.3646C194.933 35.3646 196.64 36.2008 197.799 37.8732C198.717 39.1985 199.178 40.8416 199.178 42.7928ZM195.864 41.8914C195.888 40.8596 195.66 39.9712 195.189 39.2197C194.587 38.2514 193.661 37.7689 192.42 37.7689C191.283 37.7689 190.357 38.24 189.653 39.1855C189.074 39.9369 188.73 40.84 188.624 41.8881L195.864 41.8914Z" fill="white"/>
<path d="M73.7171 21.9914C72.7502 21.9914 71.9138 21.9441 71.2175 21.8642V11.3763C72.1913 11.2259 73.1753 11.1518 74.1606 11.1546C78.1472 11.1546 79.9832 13.1156 79.9832 16.3122C79.9832 19.9994 77.8146 21.9914 73.7171 21.9914ZM74.3008 12.4994C73.7628 12.4994 73.3046 12.532 72.9247 12.6103V20.583C73.1301 20.6156 73.5247 20.6303 74.0791 20.6303C76.6912 20.6303 78.1782 19.1436 78.1782 16.3595C78.1782 13.8768 76.833 12.4994 74.3008 12.4994ZM85.7046 22.0713C83.4578 22.0713 82.0017 20.3939 82.0017 18.1167C82.0017 15.7433 83.4888 14.0513 85.8318 14.0513C88.046 14.0513 89.5347 15.6487 89.5347 17.9912C89.5347 20.3939 88.0004 22.0713 85.7046 22.0713ZM85.7698 15.2999C84.5355 15.2999 83.7447 16.454 83.7447 18.0678C83.7447 19.6506 84.5518 20.8047 85.7535 20.8047C86.9552 20.8047 87.7623 19.5707 87.7623 18.0352C87.7623 16.4703 86.9715 15.2999 85.7698 15.2999ZM102.347 14.2094L99.9422 21.8968H98.3753L97.3791 18.5584C97.1314 17.7418 96.9251 16.9132 96.7611 16.0758H96.7285C96.603 16.9137 96.3649 17.7532 96.1122 18.5584L95.0523 21.8968H93.4691L91.206 14.2094H92.962L93.8327 17.864C94.0382 18.7345 94.211 19.556 94.3545 20.332H94.3871C94.5126 19.6848 94.7181 18.8763 95.0197 17.8803L96.1122 14.211H97.5046L98.5498 17.8021C98.8025 18.6725 99.008 19.5267 99.1678 20.3336H99.2134C99.3243 19.543 99.4987 18.7035 99.7352 17.8021L100.669 14.211L102.347 14.2094ZM111.201 21.8968H109.492V17.4826C109.492 16.1231 108.97 15.4417 107.942 15.4417C106.929 15.4417 106.233 16.3122 106.233 17.3245V21.8968H104.524V16.4067C104.524 15.727 104.508 14.9983 104.46 14.2077H105.964L106.044 15.3944H106.091C106.551 14.5729 107.483 14.0513 108.529 14.0513C110.143 14.0513 111.203 15.2852 111.203 17.2935L111.201 21.8968ZM115.913 21.8968H114.203V10.6819H115.913V21.8968ZM122.143 22.0713C119.898 22.0713 118.44 20.3939 118.44 18.1167C118.44 15.7433 119.927 14.0513 122.269 14.0513C124.485 14.0513 125.972 15.6487 125.972 17.9912C125.973 20.3939 124.437 22.0713 122.143 22.0713ZM122.207 15.2999C120.973 15.2999 120.182 16.454 120.182 18.0678C120.182 19.6506 120.991 20.8047 122.189 20.8047C123.392 20.8047 124.198 19.5707 124.198 18.0352C124.199 16.4703 123.41 15.2999 122.207 15.2999ZM132.709 21.8968L132.585 21.0117H132.539C132.018 21.724 131.256 22.0713 130.291 22.0713C128.913 22.0713 127.935 21.1062 127.935 19.8087C127.935 17.9113 129.58 16.93 132.429 16.93V16.7882C132.429 15.7759 131.892 15.2689 130.832 15.2689C130.074 15.2689 129.409 15.4596 128.823 15.8395L128.476 14.7163C129.187 14.2729 130.074 14.0513 131.116 14.0513C133.125 14.0513 134.139 15.1108 134.139 17.2315V20.063C134.139 20.8389 134.173 21.4404 134.25 21.8985L132.709 21.8968ZM132.474 18.0678C130.576 18.0678 129.624 18.5275 129.624 19.618C129.624 20.4249 130.115 20.8194 130.796 20.8194C131.665 20.8194 132.474 20.1559 132.474 19.2545V18.0678ZM142.437 21.8968L142.357 20.6629H142.309C141.819 21.5953 140.994 22.0713 139.841 22.0713C137.987 22.0713 136.614 20.4412 136.614 18.1477C136.614 15.7433 138.038 14.0496 139.981 14.0496C141.01 14.0496 141.739 14.3968 142.15 15.0945H142.184V10.6819H143.894V19.825C143.894 20.5683 143.912 21.2644 143.958 21.8968H142.437ZM142.184 17.3734C142.184 16.2975 141.471 15.3798 140.384 15.3798C139.117 15.3798 138.342 16.5029 138.342 18.0841C138.342 19.6343 139.146 20.6955 140.35 20.6955C141.424 20.6955 142.184 19.7614 142.184 18.6546V17.3734ZM154.739 22.0713C152.494 22.0713 151.038 20.3939 151.038 18.1167C151.038 15.7433 152.525 14.0513 154.866 14.0513C157.082 14.0513 158.569 15.6487 158.569 17.9912C158.571 20.3939 157.036 22.0713 154.739 22.0713ZM154.802 15.2999C153.57 15.2999 152.779 16.454 152.779 18.0678C152.779 19.6506 153.586 20.8047 154.786 20.8047C155.989 20.8047 156.795 19.5707 156.795 18.0352C156.798 16.4703 156.007 15.2999 154.802 15.2999ZM167.758 21.8968H166.048V17.4826C166.048 16.1231 165.526 15.4417 164.497 15.4417C163.485 15.4417 162.79 16.3122 162.79 17.3245V21.8968H161.08V16.4067C161.08 15.727 161.064 14.9983 161.016 14.2077H162.52L162.6 15.3944H162.647C163.105 14.5729 164.039 14.0496 165.083 14.0496C166.697 14.0496 167.758 15.2836 167.758 17.2919V21.8968ZM179.255 15.4906H177.375V19.2235C177.375 20.1738 177.705 20.6482 178.37 20.6482C178.671 20.6482 178.924 20.6156 179.128 20.5683L179.175 21.8659C178.844 21.993 178.401 22.0566 177.85 22.0566C176.503 22.0566 175.697 21.3133 175.697 19.3669V15.4906H174.576V14.2094H175.697V12.801L177.375 12.294V14.2077H179.255V15.4906ZM188.301 21.8968H186.594V17.5152C186.594 16.1394 186.074 15.4433 185.044 15.4433C184.158 15.4433 183.333 16.0448 183.333 17.2625V21.8968H181.626V10.6819H183.333V15.2999H183.367C183.905 14.462 184.685 14.0496 185.679 14.0496C187.307 14.0496 188.301 15.3146 188.301 17.3245V21.8968ZM197.569 18.4639H192.441C192.474 19.9195 193.437 20.7411 194.864 20.7411C195.622 20.7411 196.32 20.614 196.936 20.3776L197.202 21.5643C196.475 21.8805 195.619 22.0387 194.623 22.0387C192.218 22.0387 190.794 20.5194 190.794 18.1639C190.794 15.8069 192.252 14.035 194.43 14.035C196.395 14.035 197.628 15.4906 197.628 17.6896C197.639 17.9491 197.619 18.209 197.569 18.4639ZM196.002 17.2462C196.002 16.0595 195.404 15.2217 194.311 15.2217C193.33 15.2217 192.554 16.0758 192.443 17.2462H196.002Z" fill="white"/>
<defs>
<linearGradient id="paint0_linear_104_341" x1="161.354" y1="65.3583" x2="161.354" y2="-169.731" gradientUnits="userSpaceOnUse">
<stop stop-color="#1A1A1A" stop-opacity="0.1"/>
<stop offset="0.123" stop-color="#212121" stop-opacity="0.151"/>
<stop offset="0.308" stop-color="#353535" stop-opacity="0.227"/>
<stop offset="0.532" stop-color="#575757" stop-opacity="0.318"/>
<stop offset="0.783" stop-color="#858585" stop-opacity="0.421"/>
<stop offset="1" stop-color="#B3B3B3" stop-opacity="0.51"/>
</linearGradient>
</defs>
</svg>
