<svg width="150" height="150" viewBox="0 0 150 150" fill="none" xmlns="http://www.w3.org/2000/svg">
<rect x="3" y="3" width="144" height="144" rx="72" fill="white"/>
<rect x="3" y="3" width="144" height="144" rx="72" stroke="#FFB974" stroke-width="6"/>
<path d="M106.214 56.8804L104.334 56.3074V45.6667C104.334 39.7864 99.5471 35 93.6669 35H56.3333C50.453 35 45.6666 39.7864 45.6666 45.6667V56.3074L43.7863 56.8804C38.6144 58.4689 34.9999 63.3596 34.9999 68.7607C34.9999 69.5211 35.0676 70.2919 35.2134 71.0524L41.828 106.307C42.7759 111.349 47.1874 115 52.3072 115H97.6928C102.828 115 107.224 111.349 108.172 106.292L114.787 71.0368C114.922 70.2921 115 69.516 115 68.7556C115 63.3545 111.386 58.4638 106.214 56.8753L106.214 56.8804ZM51.0002 45.6667C51.0002 42.7188 53.3857 40.3333 56.3336 40.3333H93.6671C96.615 40.3333 99.0005 42.7188 99.0005 45.6667V56.3334H51.0002V45.6667ZM109.547 70.0682L102.933 105.323C102.464 107.844 100.25 109.672 97.693 109.672H52.3074C49.7449 109.672 47.5366 107.844 47.0678 105.323L40.4532 70.0828C40.3751 69.6453 40.3334 69.2026 40.3334 68.7755C40.3334 64.8692 43.5209 61.6818 47.4272 61.6818H102.573C106.479 61.6818 109.667 64.8692 109.667 68.7755C109.667 69.213 109.625 69.6558 109.547 70.0828L109.547 70.0682Z" fill="#FF7E00"/>
<path d="M84.3337 76.334H65.6669C64.1981 76.334 63.0002 77.5319 63.0002 79.0007C63.0002 80.4694 64.1982 81.6673 65.6669 81.6673H84.3337C85.8025 81.6673 87.0004 80.4694 87.0004 79.0007C87.0004 77.5319 85.8024 76.334 84.3337 76.334Z" fill="#FF7E00"/>
</svg>
