<svg width="151" height="150" viewBox="0 0 151 150" fill="none" xmlns="http://www.w3.org/2000/svg">
<rect x="3.66663" y="3" width="144" height="144" rx="72" fill="white"/>
<rect x="3.66663" y="3" width="144" height="144" rx="72" stroke="#FFB974" stroke-width="6"/>
<path d="M93.0211 34.75C98.4675 34.75 102.917 39.1209 102.917 44.5176V105.482C102.917 110.865 98.4822 115.25 93.0211 115.25H58.3121C52.8658 115.25 48.4166 110.879 48.4166 105.482V44.5176C48.4166 39.1354 52.8511 34.75 58.3121 34.75H93.0211ZM51.7115 105.483C51.7115 109.066 54.6718 111.992 58.3112 111.992H93.0211C96.6603 111.992 99.6198 109.066 99.6198 105.483V103.389H51.7115V105.483ZM81.1393 106.033C82.0429 106.033 82.7866 106.762 82.7867 107.662C82.7867 108.562 82.043 109.292 81.1393 109.292H70.194C69.2903 109.292 68.5465 108.562 68.5465 107.662C68.5467 106.762 69.2904 106.033 70.194 106.033H81.1393ZM58.2975 38.0088C54.6583 38.009 51.6979 40.9347 51.6979 44.5176V100.13H99.5934V44.5176C99.5934 40.9347 96.6331 38.0089 92.9938 38.0088H89.4586L86.9908 44.1963C86.7423 44.8177 86.1314 45.2227 85.4586 45.2227H66.1403C65.4859 45.2227 64.8898 44.8505 64.6246 44.2461L61.8805 38.0088H58.2975ZM59.9313 86.1758C59.9467 87.6711 61.2531 88.9717 62.8824 88.9717H88.1764V88.958H88.4225C89.9978 88.9579 91.2765 87.7395 91.3551 86.2119L91.359 86.0625L91.3082 85.3887H59.9957L59.9313 86.1758ZM60.2584 82.1445H91.0739L89.5319 61.9541H84.3522V65.7314C84.3521 66.6311 83.6083 67.3602 82.7047 67.3604C81.801 67.3604 81.0563 66.6313 81.0563 65.7314V61.9541H70.0377V65.7314C70.0377 66.6312 69.2939 67.3602 68.3903 67.3604C67.4865 67.3604 66.7419 66.6313 66.7418 65.7314V61.9541H61.8004L60.2584 82.1445ZM73.0729 53.5811C71.4764 53.5811 70.1656 54.8 70.0358 56.3359H70.0377V58.6953H81.0563V56.5859C81.056 54.9342 79.6896 53.5811 78.0074 53.5811H73.0729ZM67.2115 41.9775H84.3385L85.9274 38.0088H65.4606L67.2115 41.9775ZM94.6696 85.9658C94.6696 89.4696 91.8731 92.2305 88.4362 92.2305H62.7916L62.774 92.2129C59.3901 92.1553 56.65 89.4229 56.65 86.0625V86.0527L56.651 86.0439L58.6217 60.1953V60.1943L58.6422 60.0371C58.7803 59.2638 59.4702 58.6953 60.2692 58.6953H66.7291V56.5869C66.7291 53.1212 69.5844 50.3223 73.0739 50.3223H78.0084C81.5124 50.3224 84.3531 53.1358 84.3531 56.5869V58.6953H91.0641C91.9318 58.6953 92.645 59.3436 92.7115 60.1943V60.1953L94.6686 85.9473L94.6696 85.957V85.9658Z" fill="#FF7E00" stroke="#FF7E00" stroke-width="0.5"/>
</svg>
