<svg width="150" height="150" viewBox="0 0 150 150" fill="none" xmlns="http://www.w3.org/2000/svg">
<rect x="3" y="3" width="144" height="144" rx="72" fill="white"/>
<rect x="3" y="3" width="144" height="144" rx="72" stroke="#FFB974" stroke-width="6"/>
<path d="M75.0019 34.5C87.007 34.5 96.7578 44.3801 96.7578 56.5156C96.7577 63.4575 92.8677 70.0582 88.5107 75.292H101.155C102.379 75.292 103.498 75.8907 104.186 76.9033L104.317 77.1113L104.321 77.1182L104.325 77.124L109.361 86.251L109.363 86.2539L109.471 86.4688C109.971 87.5521 109.913 88.7946 109.29 89.8291C108.631 90.9332 107.459 91.5957 106.168 91.5957H103.992V111.88C103.992 113.879 102.371 115.5 100.372 115.5H49.625C47.6261 115.5 46.0049 113.879 46.0049 111.88V91.5957H43.8291C42.5339 91.5956 41.3649 90.932 40.706 89.8271V89.8262C40.0469 88.7239 40.0239 87.3892 40.6338 86.2617L40.6357 86.2578L45.6621 77.1553L45.6699 77.1416C46.3593 75.9807 47.5381 75.2922 48.8515 75.292H61.4941C57.137 70.0553 53.2461 63.4573 53.2461 56.5156C53.2461 44.3801 62.9969 34.5 75.0019 34.5ZM49.3652 111.88C49.3654 112.016 49.4917 112.143 49.6279 112.143H100.375C100.511 112.143 100.637 112.016 100.638 111.88V111.38H100.641V91.5957H49.3652V111.88ZM48.8515 78.6455C48.758 78.6455 48.6515 78.6954 48.5781 78.8193L43.584 87.8721L43.5849 87.873C43.5548 87.9281 43.553 87.9703 43.5586 88.0068C43.5653 88.0513 43.5841 88.0911 43.5966 88.1123C43.6071 88.1298 43.6317 88.1633 43.6689 88.1904C43.6998 88.213 43.7475 88.2382 43.832 88.2383H106.171C106.256 88.2383 106.304 88.213 106.335 88.1904C106.372 88.1634 106.396 88.1298 106.406 88.1123L106.427 88.0693C106.434 88.0518 106.44 88.0315 106.443 88.0098C106.448 87.9745 106.448 87.929 106.414 87.8682L106.413 87.8672L101.402 78.79C101.349 78.7045 101.248 78.6455 101.148 78.6455H85.4892C82.8401 81.3937 80.2636 83.6134 78.4677 85.0459C77.4488 85.8628 76.2259 86.2704 75.0019 86.2705C73.777 86.2705 72.5505 85.8588 71.5322 85.0459L71.5312 85.0449C69.7362 83.6096 67.1593 81.3972 64.5097 78.6455H48.8515ZM75.0019 37.8545C64.8648 37.8548 56.604 46.2176 56.6006 56.5166L56.6142 57.1807C56.9045 64.0352 61.6223 70.725 66.3955 75.7783L66.4121 75.7949L66.0556 76.1318L66.4121 75.7959C69.1159 78.6545 71.8007 80.9643 73.625 82.4238H73.6259C74.4179 83.0551 75.5774 83.0587 76.3759 82.4238C78.9489 80.3678 83.2191 76.6512 86.8418 72.0518C90.4737 67.4405 93.4004 62.0098 93.4004 56.5156C93.4003 46.2466 85.1817 37.898 75.081 37.8545H75.0019Z" fill="#FF7E00" stroke="#FF7E00"/>
<path d="M75.0013 44.5801C81.43 44.5801 86.6632 49.8125 86.6634 56.2412C86.6634 62.6699 81.4337 67.9033 75.0013 67.9033C68.5691 67.9031 63.3401 62.6699 63.3401 56.2412C63.3403 49.8127 68.5728 44.5803 75.0013 44.5801ZM75.0013 47.9365C70.4213 47.9367 66.6977 51.6612 66.6976 56.2412C66.6976 60.8212 70.4245 64.5457 75.0013 64.5459C79.5784 64.5459 83.3099 60.8211 83.3099 56.2412C83.3097 51.6614 79.5817 47.9365 75.0013 47.9365Z" fill="#FF7E00" stroke="#FF7E00"/>
</svg>
