<svg width="220" height="66" viewBox="0 0 220 66" fill="none" xmlns="http://www.w3.org/2000/svg">
<g clip-path="url(#clip0_104_290)">
<path d="M211.848 65.1848H8.15222C3.67082 65.1848 0.00427246 61.5182 0.00427246 57.0368V8.14917C0.00427246 3.66777 3.67082 0.0012207 8.15222 0.0012207H211.848C216.329 0.0012207 219.996 3.66777 219.996 8.14917V57.0368C219.996 61.5182 216.329 65.1848 211.848 65.1848Z" fill="#100F0D"/>
<path d="M211.848 0.0012207H8.15222C3.67082 0.0012207 0.00427246 3.66777 0.00427246 8.14917V57.0368C0.00427246 61.5182 3.67082 65.1848 8.15222 65.1848H211.848C216.329 65.1848 219.996 61.5182 219.996 57.0368V8.14917C219.996 3.66777 216.329 0.0012207 211.848 0.0012207ZM211.848 1.30423C215.622 1.30423 218.692 4.37507 218.692 8.14917V57.0368C218.692 60.8109 215.622 63.8818 211.848 63.8818H8.15222C4.37812 63.8818 1.30863 60.8109 1.30863 57.0368V8.14917C1.30863 4.37507 4.37812 1.30423 8.15222 1.30423H211.848Z" fill="#A2A2A1"/>
<path d="M174.264 48.8889H177.305V28.5157H174.264V48.8889ZM201.653 35.8551L198.168 44.6874H198.063L194.446 35.8551H191.17L196.597 48.1996L193.502 55.0666H196.673L205.035 35.8557L201.653 35.8551ZM184.408 46.5748C183.414 46.5748 182.024 46.0763 182.024 44.8446C182.024 43.2722 183.754 42.6694 185.247 42.6694C186.583 42.6694 187.214 42.9572 188.025 43.3506C187.789 45.2379 186.164 46.5748 184.408 46.5748ZM184.776 35.4095C182.574 35.4095 180.295 36.3796 179.351 38.5287L182.05 39.6554C182.627 38.5287 183.7 38.1621 184.828 38.1621C186.401 38.1621 187.999 39.1048 188.025 40.7828V40.9922C187.475 40.6777 186.295 40.2061 184.854 40.2061C181.944 40.2061 178.983 41.8044 178.983 44.7924C178.983 47.5182 181.368 49.2744 184.041 49.2744C186.085 49.2744 187.214 48.3571 187.919 47.282H188.025V48.8555H190.962V41.0443C190.962 37.4274 188.26 35.4095 184.776 35.4095ZM165.983 38.3351H161.658V31.3522H165.983C168.256 31.3522 169.547 33.2339 169.547 34.8436C169.547 36.4224 168.256 38.3351 165.983 38.3351ZM165.905 28.5162H158.619V48.8894H161.658V41.1712H165.905C169.275 41.1712 172.588 38.7319 172.588 34.8444C172.588 30.9576 169.275 28.5162 165.905 28.5162ZM126.174 46.5782C124.073 46.5782 122.315 44.8187 122.315 42.4043C122.315 39.9618 124.073 38.1775 126.174 38.1775C128.248 38.1775 129.876 39.9619 129.876 42.4043C129.876 44.8187 128.248 46.5782 126.174 46.5782ZM129.666 36.9956H129.56C128.878 36.1819 127.565 35.4468 125.912 35.4468C122.446 35.4468 119.269 38.4927 119.269 42.4043C119.269 46.2892 122.446 49.3084 125.912 49.3084C127.565 49.3084 128.878 48.5731 129.56 47.7335H129.666V48.7304C129.666 51.3829 128.248 52.7999 125.964 52.7999C124.101 52.7999 122.945 51.4612 122.472 50.3324L119.821 51.435C120.582 53.272 122.603 55.5306 125.964 55.5306C129.535 55.5306 132.554 53.4299 132.554 48.3101V35.8667H129.666L129.666 36.9956ZM134.655 48.8883H137.699V28.5151H134.655V48.8883ZM142.189 42.1675C142.11 39.4895 144.264 38.1247 145.812 38.1247C147.02 38.1247 148.043 38.7288 148.386 39.5945L142.189 42.1675ZM151.64 39.8568C151.062 38.3087 149.303 35.4468 145.707 35.4468C142.136 35.4468 139.169 38.2558 139.169 42.3776C139.169 46.2632 142.11 49.3085 146.047 49.3085C149.224 49.3085 151.062 47.3664 151.824 46.237L149.461 44.6616C148.673 45.817 147.598 46.5783 146.047 46.5783C144.499 46.5783 143.396 45.8693 142.688 44.4778L151.955 40.645L151.64 39.8568ZM77.8064 37.5734V40.5137H84.8421C84.6321 42.1677 84.0808 43.3751 83.2405 44.2154C82.2163 45.2389 80.6148 46.3682 77.8063 46.3682C73.4744 46.3682 70.088 42.8767 70.088 38.5449C70.088 34.2131 73.4744 30.7211 77.8063 30.7211C80.1429 30.7211 81.849 31.6401 83.1093 32.8216L85.1839 30.7471C83.4244 29.0672 81.0882 27.7808 77.8063 27.7808C71.8722 27.7808 66.8842 32.6115 66.8842 38.5449C66.8842 44.4777 71.8722 49.3085 77.8063 49.3085C81.0088 49.3085 83.4245 48.2582 85.3144 46.2894C87.2572 44.3465 87.8613 41.6163 87.8613 39.4107C87.8613 38.7289 87.8083 38.0988 87.7034 37.5734H77.8064ZM95.8611 46.5782C93.7603 46.5782 91.9488 44.8454 91.9488 42.3776C91.9488 39.8836 93.7603 38.1776 95.8611 38.1776C97.961 38.1776 99.7726 39.8836 99.7726 42.3776C99.7726 44.8454 97.961 46.5782 95.8611 46.5782ZM95.8611 35.4468C92.027 35.4468 88.9033 38.3608 88.9033 42.3776C88.9033 46.3682 92.027 49.3085 95.8611 49.3085C99.6937 49.3085 102.818 46.3682 102.818 42.3776C102.818 38.3608 99.6937 35.4468 95.8611 35.4468ZM111.037 46.5782C108.938 46.5782 107.126 44.8454 107.126 42.3776C107.126 39.8836 108.938 38.1776 111.037 38.1776C113.138 38.1776 114.949 39.8836 114.949 42.3776C114.949 44.8454 113.138 46.5782 111.037 46.5782ZM111.037 35.4468C107.205 35.4468 104.081 38.3608 104.081 42.3776C104.081 46.3682 107.205 49.3085 111.037 49.3085C114.872 49.3085 117.995 46.3682 117.995 42.3776C117.995 38.3608 114.872 35.4468 111.037 35.4468Z" fill="white"/>
<path d="M33.7602 31.6543L16.412 50.0683C16.4126 50.0721 16.4139 50.0752 16.4146 50.0791C16.9466 52.0787 18.773 53.551 20.9404 53.551C21.8069 53.551 22.6204 53.3167 23.318 52.9055L23.3734 52.873L42.9021 41.6042L33.7602 31.6543Z" fill="#EB3131"/>
<path d="M51.3126 28.5193L51.296 28.508L42.8648 23.6203L33.3661 32.0727L42.8978 41.6032L51.2845 36.7642C52.7548 35.9704 53.753 34.4203 53.753 32.6328C53.753 30.8582 52.7684 29.3157 51.3126 28.5193Z" fill="#F6B60B"/>
<path d="M16.4096 15.1189C16.3053 15.5035 16.2505 15.9063 16.2505 16.3246V48.8639C16.2505 49.2814 16.3047 49.6856 16.4103 50.0688L34.3574 32.1254L16.4096 15.1189Z" fill="#5778C5"/>
<path d="M33.8886 32.5942L42.8686 23.6169L23.362 12.3072C22.6529 11.8825 21.8254 11.6374 20.9399 11.6374C18.7724 11.6374 16.9436 13.1124 16.4114 15.1142C16.4108 15.1162 16.4108 15.1175 16.4108 15.1193L33.8886 32.5942Z" fill="#3BAD49"/>
<path d="M77.2359 15.9402H72.482V17.1166H76.0443C75.9475 18.0766 75.5655 18.8303 74.9214 19.3777C74.2772 19.9253 73.4547 20.2002 72.4821 20.2002C71.4152 20.2002 70.5112 19.8285 69.7704 19.0901C69.0446 18.3364 68.6755 17.4044 68.6755 16.2816C68.6755 15.1588 69.0446 14.2268 69.7704 13.4732C70.5112 12.7348 71.4152 12.3655 72.4821 12.3655C73.0296 12.3655 73.5515 12.4597 74.0301 12.666C74.5089 12.8722 74.8933 13.1599 75.1938 13.5292L76.0977 12.6253C75.6877 12.1592 75.1684 11.8028 74.524 11.5431C73.8798 11.2833 73.2077 11.1587 72.4819 11.1587C71.0586 11.1587 69.8518 11.6526 68.8663 12.638C67.8809 13.6259 67.387 14.843 67.387 16.2816C67.387 17.7202 67.8809 18.9399 68.8663 19.9254C69.8518 20.9107 71.0586 21.4048 72.4819 21.4048C73.9766 21.4048 75.1682 20.926 76.0849 19.9533C76.892 19.1437 77.3045 18.0488 77.3045 16.6789C77.3045 16.4472 77.2766 16.2 77.2359 15.9402ZM79.0775 11.3774V21.1856H84.8039V19.9812H80.3379V16.8698H84.3661V15.6934H80.3379V12.5844H84.8039V11.3774L79.0775 11.3774ZM92.8336 12.5845V11.3774H86.0937V12.5845H88.8335V21.1856H90.0939V12.5845H92.8336ZM98.9356 11.3774H97.6752V21.1856H98.9356V11.3774ZM107.255 12.5845V11.3774H100.515V12.5845H103.255V21.1856H104.515V12.5845H107.255ZM119.973 12.6532C119 11.6525 117.809 11.1586 116.385 11.1586C114.96 11.1586 113.768 11.6525 112.795 12.6379C111.823 13.6107 111.344 14.8302 111.344 16.2815C111.344 17.7328 111.823 18.9526 112.795 19.9253C113.768 20.9106 114.96 21.4047 116.385 21.4047C117.796 21.4047 119 20.9106 119.973 19.9253C120.946 18.9526 121.424 17.7329 121.424 16.2815C121.424 14.843 120.946 13.6257 119.973 12.6532ZM113.699 13.4731C114.425 12.7347 115.316 12.3654 116.385 12.3654C117.452 12.3654 118.344 12.7347 119.057 13.4731C119.782 14.1987 120.139 15.1458 120.139 16.2815C120.139 17.4198 119.782 18.3643 119.057 19.09C118.344 19.8284 117.452 20.2001 116.385 20.2001C115.316 20.2001 114.425 19.8284 113.699 19.09C112.989 18.3491 112.632 17.4197 112.632 16.2815C112.632 15.1458 112.989 14.214 113.699 13.4731ZM124.419 15.0772L124.365 13.1852H124.419L129.404 21.1855H130.721V11.3773H129.46V17.1165L129.514 19.0085H129.46L124.694 11.3773H123.159V21.1855H124.419V15.0772Z" fill="white" stroke="white" stroke-width="0.26666" stroke-miterlimit="10"/>
</g>
<defs>
<clipPath id="clip0_104_290">
<rect width="220" height="65.1848" fill="white"/>
</clipPath>
</defs>
</svg>
