<svg width="301" height="287" viewBox="0 0 301 287" fill="none" xmlns="http://www.w3.org/2000/svg">
<path fill-rule="evenodd" clip-rule="evenodd" d="M196.802 217.399C196.519 209.757 192.615 206.424 178.942 201.608C177.64 201.149 176.878 200.985 175.707 200.731C174.793 200.534 173.63 200.282 171.765 199.795C162.418 197.352 161.434 197.028 158.123 194.275C156.274 192.738 159.642 189.192 162.495 186.189C162.603 186.075 162.711 185.961 162.818 185.849H230.964C235.935 185.849 239.965 189.879 239.965 194.85V197.951C239.965 245.953 201.052 284.866 153.05 284.866C105.048 284.866 66.1352 245.953 66.1352 197.951V194.85C66.1352 189.879 70.1653 185.849 75.1368 185.849L136.579 185.849C131.907 188.473 128.714 192.221 126.999 197.09C126.188 199.392 126.12 201.413 126.862 203.744C127.76 206.001 133.447 209.023 136.471 210.518C136.471 210.518 144.322 213.809 149.111 215.496C154.611 217.433 161.882 218.466 161.882 218.466C162.914 218.622 163.835 218.747 164.652 218.858C169.1 219.46 170.441 219.641 169.55 222.169C168.496 225.162 165.915 227.681 161.808 229.728C157.817 231.815 153.304 233.718 148.269 235.438C143.351 237.199 138.415 238.824 133.462 240.314C128.624 241.844 124.911 243.512 122.321 245.316C118.514 247.97 117.543 253.357 117.543 253.357C117.543 253.357 116.602 257.07 118.725 259.963C120.133 261.882 122.66 264.324 126.304 267.29C129.989 270.14 134.671 272.566 140.349 274.566C154.37 279.504 167.66 280.046 180.22 276.19C185.915 274.444 190.875 272.013 195.464 269.141C201.433 265.405 203.818 263.859 206.152 261.893C209.795 258.825 215.864 253.267 215.243 253.048C214.928 252.937 212.7 254.007 209.811 255.393C206.989 256.747 203.537 258.404 200.623 259.559C197.136 260.941 194.9 261.744 191.287 262.753C184.856 264.549 179.837 264.544 174.283 264.539L174.259 264.539C168.007 264.533 160.677 262.153 156.042 260.52C151.685 258.985 151.299 258.715 149.35 257.346C149.226 257.258 149.095 257.167 148.957 257.07C146.647 255.454 145.487 253.843 148.082 252.611C149.492 251.975 151.274 251.223 153.325 250.358C162.909 246.314 178.35 239.798 189.01 231.077C193.904 227.072 196.916 220.492 196.802 217.399Z" fill="#533C25"/>
<path fill-rule="evenodd" clip-rule="evenodd" d="M12.9421 44.6938C12.1694 46.1807 11.4344 47.5653 10.7367 48.8796C5.44372 58.8509 2.30067 64.7719 1.14795 80.566C-0.145254 98.2849 2.59025 116.315 7.65894 128.534C13.5974 142.85 18.3893 150.949 30.2634 160.91C41.8521 170.631 48.9728 174.191 65.7671 177.863C82.3501 181.49 106.874 173.944 118.759 167.661C118.709 167.178 118.683 166.688 118.683 166.192C118.683 158.458 124.953 152.188 132.688 152.188C134.98 152.188 137.144 152.738 139.054 153.715C139.162 153.607 139.271 153.497 139.382 153.386C142.777 150.592 144.321 140.685 142.415 136.245C140.509 131.805 138.687 128.317 134.079 125.999C130.975 124.437 128.775 123.855 125.335 124.346C123.416 124.62 122.196 125.101 120.933 125.885C112.765 133.657 101.725 138.428 89.5669 138.428C64.3779 138.428 43.9895 117.949 43.9895 92.7282C43.9895 67.5074 64.3779 47.028 89.5669 47.028C114.757 47.028 135.144 67.5075 135.144 92.7282C135.144 97.8318 134.309 102.741 132.769 107.326C135.5 104.44 137.925 100.88 139.123 98.6621C143.01 91.4653 144.002 87.8881 145.679 80.558C148.78 66.9994 148.766 57.4367 143.263 44.3972C136.342 27.9976 118.088 17.1245 109.857 13.3872C101.316 9.67023 92.7486 8.00193 86.7322 7.54284C69.0713 6.19519 53.1175 10.9827 40.6864 17.8424C28.3599 24.6125 23.1395 29.5782 12.9421 44.6938ZM122.695 96.066C122.804 94.9683 122.859 93.8548 122.859 92.7282C122.859 74.2561 107.936 59.313 89.5669 59.313C88.0658 59.313 86.5877 59.4128 85.1388 59.6062C85.5071 59.7074 85.8773 59.8116 86.2493 59.9189C91.4153 61.2892 94.6632 62.8546 95.9929 64.6154L96.9948 91.7767C98.4807 92.7685 100.706 93.6703 103.669 94.4821C106.738 95.2042 110.018 95.6986 113.512 95.9652C117.037 96.2342 120.098 96.2678 122.695 96.066ZM61.9245 74.0984C58.3574 79.4191 56.2745 85.8274 56.2745 92.7282C56.2745 96.6857 56.9595 100.481 58.2167 104.002C58.1715 101.392 58.2564 98.6793 58.4712 95.8646C59.0339 88.4896 60.1678 81.3047 61.8728 74.3098C61.89 74.2392 61.9072 74.1688 61.9245 74.0984ZM135.166 157.444C134.378 157.221 133.547 157.102 132.688 157.102C128.065 157.102 124.248 160.552 123.672 165.018C129.348 161.931 131.982 160.288 135.166 157.444ZM290.558 48.8786L290.559 48.8795C295.852 58.8509 298.995 64.7719 300.147 80.566C301.441 98.2849 298.705 116.315 293.636 128.534C287.698 142.85 282.906 150.949 271.032 160.91C259.443 170.631 252.323 174.191 235.528 177.863C218.924 181.494 194.359 173.925 182.491 167.637C182.54 167.162 182.565 166.68 182.565 166.192C182.565 158.458 176.295 152.188 168.56 152.188C166.28 152.188 164.127 152.732 162.225 153.699C162.122 153.596 162.019 153.492 161.913 153.386C158.518 150.592 156.974 140.685 158.881 136.245C160.787 131.805 162.608 128.317 167.216 125.999C170.321 124.437 172.52 123.855 175.96 124.346C177.759 124.603 178.943 125.041 180.124 125.741C188.283 133.597 199.351 138.428 211.557 138.428C236.697 138.428 257.011 117.931 257.011 92.7282C257.011 67.5256 236.697 47.028 211.557 47.028C186.417 47.028 166.102 67.5256 166.102 92.7282C166.102 97.7974 166.924 102.676 168.442 107.236C165.745 104.366 163.358 100.857 162.173 98.6621C158.285 91.4653 157.293 87.8881 155.617 80.558C152.515 66.9994 152.529 57.4367 158.032 44.3972C164.953 27.9976 183.208 17.1245 191.438 13.3872C199.979 9.67023 208.547 8.00193 214.563 7.54284C232.224 6.19519 248.178 10.9827 260.609 17.8424C272.936 24.6125 278.156 29.5782 288.353 44.6938C289.126 46.1803 289.861 47.5646 290.558 48.8786ZM243.089 103.13C244.152 99.8577 244.726 96.3618 244.726 92.7282C244.726 86.1109 242.82 79.9503 239.533 74.767C241.177 81.6177 242.274 88.6502 242.824 95.8646C243.015 98.367 243.103 100.789 243.089 103.13ZM216.094 59.6234C215.746 59.7192 215.397 59.8177 215.046 59.9189C209.88 61.2892 206.632 62.8546 205.303 64.6154L204.301 91.7767C202.815 92.7685 200.59 93.6703 197.626 94.4821C194.558 95.2042 191.277 95.6986 187.784 95.9652C184.236 96.2359 181.158 96.2682 178.55 96.0621C178.442 94.9657 178.387 93.8536 178.387 92.7282C178.387 74.238 193.274 59.313 211.557 59.313C213.096 59.313 214.61 59.4187 216.094 59.6234ZM177.572 164.99C171.925 161.917 169.298 160.275 166.118 157.433C166.895 157.217 167.714 157.102 168.56 157.102C173.173 157.102 176.983 160.538 177.572 164.99Z" fill="#A5774A"/>
<path d="M211.557 126.144C193.17 126.144 178.264 111.183 178.264 92.7285C178.264 74.2743 193.17 59.3132 211.557 59.3132C229.944 59.3132 244.849 74.2743 244.849 92.7285C244.849 111.183 229.944 126.144 211.557 126.144Z" fill="#533C25"/>
<path d="M89.5665 126.144C71.1802 126.144 56.2741 111.183 56.2741 92.7285C56.2741 74.2743 71.1802 59.3132 89.5665 59.3132C107.953 59.3132 122.859 74.2743 122.859 92.7285C122.859 111.183 107.953 126.144 89.5665 126.144Z" fill="#533C25"/>
<path d="M168.559 175.284C163.538 175.284 159.468 171.213 159.468 166.193C159.468 161.172 163.538 157.102 168.559 157.102C173.58 157.102 177.65 161.172 177.65 166.193C177.65 171.213 173.58 175.284 168.559 175.284Z" fill="#533C25"/>
<path d="M132.687 175.284C127.666 175.284 123.596 171.213 123.596 166.193C123.596 161.172 127.666 157.102 132.687 157.102C137.708 157.102 141.778 161.172 141.778 166.193C141.778 171.213 137.708 175.284 132.687 175.284Z" fill="#533C25"/>
</svg>
