<svg width="40" height="40" viewBox="0 0 40 40" fill="none" xmlns="http://www.w3.org/2000/svg">
<path d="M4.16669 20.0001C4.16669 12.5367 4.16669 8.80341 6.48502 6.48508C8.80335 4.16675 12.535 4.16675 20 4.16675C27.4634 4.16675 31.1967 4.16675 33.515 6.48508C35.8334 8.80341 35.8334 12.5351 35.8334 20.0001C35.8334 27.4634 35.8334 31.1967 33.515 33.5151C31.1967 35.8334 27.465 35.8334 20 35.8334C12.5367 35.8334 8.80335 35.8334 6.48502 33.5151C4.16669 31.1967 4.16669 27.4651 4.16669 20.0001Z" stroke="#161616" stroke-width="2.5" stroke-linecap="round" stroke-linejoin="round"/>
<path d="M29.18 10.8335H29.1633M27.5 20.0002C27.5 21.9893 26.7098 23.8969 25.3033 25.3035C23.8968 26.71 21.9891 27.5002 20 27.5002C18.0109 27.5002 16.1032 26.71 14.6967 25.3035C13.2902 23.8969 12.5 21.9893 12.5 20.0002C12.5 18.011 13.2902 16.1034 14.6967 14.6969C16.1032 13.2903 18.0109 12.5002 20 12.5002C21.9891 12.5002 23.8968 13.2903 25.3033 14.6969C26.7098 16.1034 27.5 18.011 27.5 20.0002Z" stroke="#161616" stroke-width="2.5" stroke-linecap="round" stroke-linejoin="round"/>
</svg>
