<svg width="237" height="44" viewBox="0 0 237 44" fill="none" xmlns="http://www.w3.org/2000/svg">
<path d="M102.5 19.0706L103.664 20.6973L102.5 19.0706ZM236.565 20.1127C236.913 21.161 236.345 22.293 235.297 22.6411L218.214 28.3136C217.166 28.6617 216.034 28.0941 215.686 27.0458C215.338 25.9975 215.905 24.8655 216.953 24.5174L232.138 19.4752L227.096 4.29048C226.748 3.2422 227.316 2.11021 228.364 1.76211C229.412 1.41402 230.544 1.98164 230.892 3.02993L236.565 20.1127ZM1.33325 35.0468C2.16556 33.2282 2.16536 33.2281 2.16517 33.228C2.16512 33.228 2.16494 33.2279 2.16484 33.2279C2.16463 33.2278 2.16446 33.2277 2.16432 33.2277C2.16405 33.2275 2.16391 33.2275 2.1639 33.2275C2.16389 33.2275 2.16442 33.2277 2.16549 33.2282C2.16763 33.2292 2.17192 33.2311 2.17836 33.234C2.19123 33.2398 2.21267 33.2493 2.24257 33.2625C2.30238 33.2888 2.39603 33.3295 2.52269 33.3829C2.77601 33.4898 3.16128 33.6477 3.67177 33.8439C4.69287 34.2363 6.21419 34.7816 8.18207 35.3782L7.60185 37.2922L7.02162 39.2062C4.95413 38.5794 3.34115 38.0021 2.2368 37.5776C1.68457 37.3654 1.25931 37.1913 0.967805 37.0683C0.822044 37.0068 0.709698 36.9581 0.631614 36.9237C0.592571 36.9066 0.56209 36.893 0.540278 36.8832C0.529372 36.8783 0.520633 36.8743 0.514073 36.8714C0.510794 36.8699 0.508059 36.8686 0.505871 36.8676C0.504777 36.8671 0.503819 36.8667 0.502999 36.8663C0.502588 36.8661 0.502212 36.866 0.501871 36.8658C0.5017 36.8657 0.501469 36.8656 0.501383 36.8656C0.501161 36.8655 0.500948 36.8654 1.33325 35.0468ZM20.6031 40.206L20.9051 38.229C24.7746 38.8201 29.1482 39.2532 33.937 39.36L33.8924 41.3595L33.8478 43.359C28.8725 43.2481 24.3265 42.798 20.3011 42.1831L20.6031 40.206ZM47.2352 40.807L47.0259 38.818C51.1423 38.3848 55.4542 37.6818 59.9234 36.6354L60.3793 38.5828L60.8353 40.5301C56.1969 41.6161 51.72 42.3461 47.4445 42.7961L47.2352 40.807ZM73.1594 34.754L72.4711 32.8761C76.3959 31.4378 80.4068 29.7157 84.4821 27.6672L85.3803 29.4542L86.2785 31.2411C82.0657 33.3587 77.9144 35.1414 73.8476 36.6319L73.1594 34.754ZM96.971 22.825L95.889 21.143C97.6969 19.9799 99.5133 18.748 101.336 17.4439L102.5 19.0706L103.664 20.6973C101.787 22.0394 99.9166 23.3081 98.0531 24.5069L96.971 22.825ZM102.5 19.0706L101.336 17.4439C102.954 16.2871 104.594 15.2006 106.256 14.1813L107.302 15.886L108.348 17.5907C106.766 18.5613 105.203 19.5958 103.664 20.6973L102.5 19.0706ZM117.509 10.5651L116.709 8.73223C120.347 7.144 124.047 5.82428 127.782 4.74318L128.338 6.66435L128.894 8.58551C125.316 9.62099 121.78 10.8828 118.31 12.3981L117.509 10.5651ZM139.568 4.1302L139.24 2.1572C143.122 1.51268 147.014 1.08773 150.886 0.849979L151.009 2.84622L151.131 4.84246C147.386 5.07241 143.632 5.48284 139.895 6.1032L139.568 4.1302ZM162.523 2.66973L162.58 0.670547C166.524 0.783283 170.417 1.06203 174.23 1.47136L174.016 3.45993L173.803 5.4485C170.086 5.04941 166.297 4.77843 162.466 4.66891L162.523 2.66973ZM185.424 5.09204L185.774 3.12289C189.717 3.82365 193.528 4.63692 197.166 5.51731L196.696 7.46121L196.226 9.40511C192.66 8.54237 188.93 7.74641 185.074 7.0612L185.424 5.09204ZM207.81 10.4891L208.39 8.57486C212.432 9.79828 216.135 11.0508 219.419 12.2429L218.737 14.1229L218.054 16.0029C214.832 14.833 211.198 13.6038 207.231 12.4034L207.81 10.4891ZM229.442 18.3578L230.234 16.5215C231.932 17.2542 233.257 17.8589 234.161 18.2823C234.613 18.4939 234.96 18.6603 235.195 18.7747C235.313 18.8319 235.403 18.8761 235.465 18.9064C235.496 18.9216 235.519 18.9333 235.536 18.9415C235.544 18.9456 235.55 18.9488 235.555 18.9511C235.557 18.9522 235.559 18.9531 235.56 18.9538C235.561 18.9542 235.562 18.9544 235.562 18.9547C235.562 18.9548 235.562 18.9549 235.563 18.955C235.563 18.955 235.563 18.9551 235.563 18.9551C235.563 18.9552 235.563 18.9552 234.667 20.743C233.77 22.5309 233.77 22.5309 233.77 22.5309C233.77 22.5309 233.77 22.531 233.77 22.531C233.77 22.531 233.77 22.531 233.77 22.531C233.77 22.531 233.77 22.531 233.77 22.5309C233.77 22.5306 233.769 22.5302 233.767 22.5295C233.765 22.5282 233.76 22.5259 233.754 22.5228C233.741 22.5165 233.722 22.5067 233.695 22.4934C233.641 22.4669 233.559 22.4266 233.449 22.3733C233.229 22.2667 232.899 22.1083 232.464 21.9047C231.595 21.4974 230.307 20.9096 228.649 20.1941L229.442 18.3578ZM102.5 19.0706L103.664 20.6973L102.5 19.0706ZM236.565 20.1127C236.913 21.161 236.345 22.293 235.297 22.6411L218.214 28.3136C217.166 28.6617 216.034 28.0941 215.686 27.0458C215.338 25.9975 215.905 24.8655 216.953 24.5174L232.138 19.4752L227.096 4.29048C226.748 3.2422 227.316 2.11021 228.364 1.76211C229.412 1.41402 230.544 1.98164 230.892 3.02993L236.565 20.1127ZM1.33325 35.0468C2.16556 33.2282 2.16536 33.2281 2.16517 33.228C2.16512 33.228 2.16494 33.2279 2.16484 33.2279C2.16463 33.2278 2.16446 33.2277 2.16432 33.2277C2.16405 33.2275 2.16391 33.2275 2.1639 33.2275C2.16389 33.2275 2.16442 33.2277 2.16549 33.2282C2.16763 33.2292 2.17192 33.2311 2.17836 33.234C2.19123 33.2398 2.21267 33.2493 2.24257 33.2625C2.30238 33.2888 2.39603 33.3295 2.52269 33.3829C2.77601 33.4898 3.16128 33.6477 3.67177 33.8439C4.69287 34.2363 6.21419 34.7816 8.18207 35.3782L7.60185 37.2922L7.02162 39.2062C4.95413 38.5794 3.34115 38.0021 2.2368 37.5776C1.68457 37.3654 1.25931 37.1913 0.967805 37.0683C0.822044 37.0068 0.709698 36.9581 0.631614 36.9237C0.592571 36.9066 0.56209 36.893 0.540278 36.8832C0.529372 36.8783 0.520633 36.8743 0.514073 36.8714C0.510794 36.8699 0.508059 36.8686 0.505871 36.8676C0.504777 36.8671 0.503819 36.8667 0.502999 36.8663C0.502588 36.8661 0.502212 36.866 0.501871 36.8658C0.5017 36.8657 0.501469 36.8656 0.501383 36.8656C0.501161 36.8655 0.500948 36.8654 1.33325 35.0468ZM20.6031 40.206L20.9051 38.229C24.7746 38.8201 29.1482 39.2532 33.937 39.36L33.8924 41.3595L33.8478 43.359C28.8725 43.2481 24.3265 42.798 20.3011 42.1831L20.6031 40.206ZM47.2352 40.807L47.0259 38.818C51.1423 38.3848 55.4542 37.6818 59.9234 36.6354L60.3793 38.5828L60.8353 40.5301C56.1969 41.6161 51.72 42.3461 47.4445 42.7961L47.2352 40.807ZM73.1594 34.754L72.4711 32.8761C76.3959 31.4378 80.4068 29.7157 84.4821 27.6672L85.3803 29.4542L86.2785 31.2411C82.0657 33.3587 77.9144 35.1414 73.8476 36.6319L73.1594 34.754ZM96.971 22.825L95.889 21.143C97.6969 19.9799 99.5133 18.748 101.336 17.4439L102.5 19.0706L103.664 20.6973C101.787 22.0394 99.9166 23.3081 98.0531 24.5069L96.971 22.825ZM102.5 19.0706L101.336 17.4439C102.954 16.2871 104.594 15.2006 106.256 14.1813L107.302 15.886L108.348 17.5907C106.766 18.5613 105.203 19.5958 103.664 20.6973L102.5 19.0706ZM117.509 10.5651L116.709 8.73223C120.347 7.144 124.047 5.82428 127.782 4.74318L128.338 6.66435L128.894 8.58551C125.316 9.62099 121.78 10.8828 118.31 12.3981L117.509 10.5651ZM139.568 4.1302L139.24 2.1572C143.122 1.51268 147.014 1.08773 150.886 0.849979L151.009 2.84622L151.131 4.84246C147.386 5.07241 143.632 5.48284 139.895 6.1032L139.568 4.1302ZM162.523 2.66973L162.58 0.670547C166.524 0.783283 170.417 1.06203 174.23 1.47136L174.016 3.45993L173.803 5.4485C170.086 5.04941 166.297 4.77843 162.466 4.66891L162.523 2.66973ZM185.424 5.09204L185.774 3.12289C189.717 3.82365 193.528 4.63692 197.166 5.51731L196.696 7.46121L196.226 9.40511C192.66 8.54237 188.93 7.74641 185.074 7.0612L185.424 5.09204ZM207.81 10.4891L208.39 8.57486C212.432 9.79828 216.135 11.0508 219.419 12.2429L218.737 14.1229L218.054 16.0029C214.832 14.833 211.198 13.6038 207.231 12.4034L207.81 10.4891ZM229.442 18.3578L230.234 16.5215C231.932 17.2542 233.257 17.8589 234.161 18.2823C234.613 18.4939 234.96 18.6603 235.195 18.7747C235.313 18.8319 235.403 18.8761 235.465 18.9064C235.496 18.9216 235.519 18.9333 235.536 18.9415C235.544 18.9456 235.55 18.9488 235.555 18.9511C235.557 18.9522 235.559 18.9531 235.56 18.9538C235.561 18.9542 235.562 18.9544 235.562 18.9547C235.562 18.9548 235.562 18.9549 235.563 18.955C235.563 18.955 235.563 18.9551 235.563 18.9551C235.563 18.9552 235.563 18.9552 234.667 20.743C233.77 22.5309 233.77 22.5309 233.77 22.5309C233.77 22.5309 233.77 22.531 233.77 22.531C233.77 22.531 233.77 22.531 233.77 22.531C233.77 22.531 233.77 22.531 233.77 22.5309C233.77 22.5306 233.769 22.5302 233.767 22.5295C233.765 22.5282 233.76 22.5259 233.754 22.5228C233.741 22.5165 233.722 22.5067 233.695 22.4934C233.641 22.4669 233.559 22.4266 233.449 22.3733C233.229 22.2667 232.899 22.1083 232.464 21.9047C231.595 21.4974 230.307 20.9096 228.649 20.1941L229.442 18.3578Z" fill="#533C25"/>
</svg>
