<svg width="237" height="44" viewBox="0 0 237 44" fill="none" xmlns="http://www.w3.org/2000/svg">
<path d="M102.833 19.0706L103.997 20.6973L102.833 19.0706ZM236.898 20.1127C237.246 21.161 236.679 22.293 235.63 22.6411L218.547 28.3136C217.499 28.6617 216.367 28.0941 216.019 27.0458C215.671 25.9975 216.239 24.8655 217.287 24.5174L232.472 19.4752L227.429 4.29048C227.081 3.2422 227.649 2.11021 228.697 1.76211C229.745 1.41402 230.877 1.98164 231.226 3.02993L236.898 20.1127ZM1.66663 35.0468C2.49893 33.2282 2.49873 33.2281 2.49855 33.228C2.49849 33.228 2.49831 33.2279 2.49821 33.2279C2.49801 33.2278 2.49783 33.2277 2.4977 33.2277C2.49742 33.2275 2.49728 33.2275 2.49728 33.2275C2.49726 33.2275 2.49779 33.2277 2.49886 33.2282C2.501 33.2292 2.50529 33.2311 2.51173 33.234C2.5246 33.2398 2.54604 33.2493 2.57595 33.2625C2.63575 33.2888 2.7294 33.3295 2.85606 33.3829C3.10939 33.4898 3.49465 33.6477 4.00514 33.8439C5.02625 34.2363 6.54756 34.7816 8.51544 35.3782L7.93522 37.2922L7.355 39.2062C5.28751 38.5794 3.67453 38.0021 2.57018 37.5776C2.01794 37.3654 1.59269 37.1913 1.30118 37.0683C1.15542 37.0068 1.04307 36.9581 0.964988 36.9237C0.925945 36.9066 0.895464 36.893 0.873652 36.8832C0.862746 36.8783 0.854007 36.8743 0.847447 36.8714C0.844168 36.8699 0.841433 36.8686 0.839245 36.8676C0.838151 36.8671 0.837193 36.8667 0.836373 36.8663C0.835962 36.8661 0.835586 36.866 0.835245 36.8658C0.835074 36.8657 0.834843 36.8656 0.834758 36.8656C0.834535 36.8655 0.834322 36.8654 1.66663 35.0468ZM20.9364 40.206L21.2384 38.229C25.108 38.8201 29.4815 39.2532 34.2704 39.36L34.2258 41.3595L34.1812 43.359C29.2059 43.2481 24.6599 42.798 20.6344 42.1831L20.9364 40.206ZM47.5686 40.807L47.3593 38.818C51.4756 38.3848 55.7876 37.6818 60.2568 36.6354L60.7127 38.5828L61.1686 40.5301C56.5303 41.6161 52.0534 42.3461 47.7779 42.7961L47.5686 40.807ZM73.4927 34.754L72.8045 32.8761C76.7292 31.4378 80.7402 29.7157 84.8154 27.6672L85.7137 29.4542L86.6119 31.2411C82.3991 33.3587 78.2478 35.1414 74.181 36.6319L73.4927 34.754ZM97.3044 22.825L96.2223 21.143C98.0302 19.9799 99.8467 18.748 101.67 17.4439L102.833 19.0706L103.997 20.6973C102.121 22.0394 100.25 23.3081 98.3865 24.5069L97.3044 22.825ZM102.833 19.0706L101.67 17.4439C103.287 16.2871 104.928 15.2006 106.589 14.1813L107.635 15.886L108.681 17.5907C107.099 18.5613 105.537 19.5958 103.997 20.6973L102.833 19.0706ZM117.843 10.5651L117.042 8.73223C120.68 7.144 124.38 5.82428 128.116 4.74318L128.672 6.66435L129.228 8.58551C125.65 9.62099 122.113 10.8828 118.643 12.3981L117.843 10.5651ZM139.901 4.1302L139.573 2.1572C143.456 1.51268 147.347 1.08773 151.22 0.849979L151.342 2.84622L151.465 4.84246C147.72 5.07241 143.965 5.48284 140.229 6.1032L139.901 4.1302ZM162.857 2.66973L162.914 0.670547C166.857 0.783283 170.751 1.06203 174.563 1.47136L174.35 3.45993L174.136 5.4485C170.419 5.04941 166.63 4.77843 162.799 4.66891L162.857 2.66973ZM185.757 5.09204L186.107 3.12289C190.05 3.82365 193.861 4.63692 197.5 5.51731L197.029 7.46121L196.559 9.40511C192.994 8.54237 189.263 7.74641 185.407 7.0612L185.757 5.09204ZM208.144 10.4891L208.723 8.57486C212.765 9.79828 216.468 11.0508 219.753 12.2429L219.07 14.1229L218.388 16.0029C215.165 14.833 211.531 13.6038 207.564 12.4034L208.144 10.4891ZM229.775 18.3578L230.567 16.5215C232.265 17.2542 233.59 17.8589 234.494 18.2823C234.946 18.4939 235.293 18.6603 235.529 18.7747C235.647 18.8319 235.737 18.8761 235.798 18.9064C235.829 18.9216 235.853 18.9333 235.869 18.9415C235.877 18.9456 235.884 18.9488 235.888 18.9511C235.89 18.9522 235.892 18.9531 235.894 18.9538C235.894 18.9542 235.895 18.9544 235.895 18.9547C235.896 18.9548 235.896 18.9549 235.896 18.955C235.896 18.955 235.896 18.9551 235.896 18.9551C235.896 18.9552 235.896 18.9552 235 20.743C234.103 22.5309 234.104 22.5309 234.104 22.5309C234.104 22.5309 234.104 22.531 234.104 22.531C234.104 22.531 234.104 22.531 234.104 22.531C234.104 22.531 234.104 22.531 234.104 22.5309C234.103 22.5306 234.102 22.5302 234.101 22.5295C234.098 22.5282 234.094 22.5259 234.087 22.5228C234.075 22.5165 234.055 22.5067 234.028 22.4934C233.974 22.4669 233.892 22.4266 233.782 22.3733C233.563 22.2667 233.232 22.1083 232.798 21.9047C231.928 21.4974 230.641 20.9096 228.983 20.1941L229.775 18.3578ZM102.833 19.0706L103.997 20.6973L102.833 19.0706ZM236.898 20.1127C237.246 21.161 236.679 22.293 235.63 22.6411L218.547 28.3136C217.499 28.6617 216.367 28.0941 216.019 27.0458C215.671 25.9975 216.239 24.8655 217.287 24.5174L232.472 19.4752L227.429 4.29048C227.081 3.2422 227.649 2.11021 228.697 1.76211C229.745 1.41402 230.877 1.98164 231.226 3.02993L236.898 20.1127ZM1.66663 35.0468C2.49893 33.2282 2.49873 33.2281 2.49855 33.228C2.49849 33.228 2.49831 33.2279 2.49821 33.2279C2.49801 33.2278 2.49783 33.2277 2.4977 33.2277C2.49742 33.2275 2.49728 33.2275 2.49728 33.2275C2.49726 33.2275 2.49779 33.2277 2.49886 33.2282C2.501 33.2292 2.50529 33.2311 2.51173 33.234C2.5246 33.2398 2.54604 33.2493 2.57595 33.2625C2.63575 33.2888 2.7294 33.3295 2.85606 33.3829C3.10939 33.4898 3.49465 33.6477 4.00514 33.8439C5.02625 34.2363 6.54756 34.7816 8.51544 35.3782L7.93522 37.2922L7.355 39.2062C5.28751 38.5794 3.67453 38.0021 2.57018 37.5776C2.01794 37.3654 1.59269 37.1913 1.30118 37.0683C1.15542 37.0068 1.04307 36.9581 0.964988 36.9237C0.925945 36.9066 0.895464 36.893 0.873652 36.8832C0.862746 36.8783 0.854007 36.8743 0.847447 36.8714C0.844168 36.8699 0.841433 36.8686 0.839245 36.8676C0.838151 36.8671 0.837193 36.8667 0.836373 36.8663C0.835962 36.8661 0.835586 36.866 0.835245 36.8658C0.835074 36.8657 0.834843 36.8656 0.834758 36.8656C0.834535 36.8655 0.834322 36.8654 1.66663 35.0468ZM20.9364 40.206L21.2384 38.229C25.108 38.8201 29.4815 39.2532 34.2704 39.36L34.2258 41.3595L34.1812 43.359C29.2059 43.2481 24.6599 42.798 20.6344 42.1831L20.9364 40.206ZM47.5686 40.807L47.3593 38.818C51.4756 38.3848 55.7876 37.6818 60.2568 36.6354L60.7127 38.5828L61.1686 40.5301C56.5303 41.6161 52.0534 42.3461 47.7779 42.7961L47.5686 40.807ZM73.4927 34.754L72.8045 32.8761C76.7292 31.4378 80.7402 29.7157 84.8154 27.6672L85.7137 29.4542L86.6119 31.2411C82.3991 33.3587 78.2478 35.1414 74.181 36.6319L73.4927 34.754ZM97.3044 22.825L96.2223 21.143C98.0302 19.9799 99.8467 18.748 101.67 17.4439L102.833 19.0706L103.997 20.6973C102.121 22.0394 100.25 23.3081 98.3865 24.5069L97.3044 22.825ZM102.833 19.0706L101.67 17.4439C103.287 16.2871 104.928 15.2006 106.589 14.1813L107.635 15.886L108.681 17.5907C107.099 18.5613 105.537 19.5958 103.997 20.6973L102.833 19.0706ZM117.843 10.5651L117.042 8.73223C120.68 7.144 124.38 5.82428 128.116 4.74318L128.672 6.66435L129.228 8.58551C125.65 9.62099 122.113 10.8828 118.643 12.3981L117.843 10.5651ZM139.901 4.1302L139.573 2.1572C143.456 1.51268 147.347 1.08773 151.22 0.849979L151.342 2.84622L151.465 4.84246C147.72 5.07241 143.965 5.48284 140.229 6.1032L139.901 4.1302ZM162.857 2.66973L162.914 0.670547C166.857 0.783283 170.751 1.06203 174.563 1.47136L174.35 3.45993L174.136 5.4485C170.419 5.04941 166.63 4.77843 162.799 4.66891L162.857 2.66973ZM185.757 5.09204L186.107 3.12289C190.05 3.82365 193.861 4.63692 197.5 5.51731L197.029 7.46121L196.559 9.40511C192.994 8.54237 189.263 7.74641 185.407 7.0612L185.757 5.09204ZM208.144 10.4891L208.723 8.57486C212.765 9.79828 216.468 11.0508 219.753 12.2429L219.07 14.1229L218.388 16.0029C215.165 14.833 211.531 13.6038 207.564 12.4034L208.144 10.4891ZM229.775 18.3578L230.567 16.5215C232.265 17.2542 233.59 17.8589 234.494 18.2823C234.946 18.4939 235.293 18.6603 235.529 18.7747C235.647 18.8319 235.737 18.8761 235.798 18.9064C235.829 18.9216 235.853 18.9333 235.869 18.9415C235.877 18.9456 235.884 18.9488 235.888 18.9511C235.89 18.9522 235.892 18.9531 235.894 18.9538C235.894 18.9542 235.895 18.9544 235.895 18.9547C235.896 18.9548 235.896 18.9549 235.896 18.955C235.896 18.955 235.896 18.9551 235.896 18.9551C235.896 18.9552 235.896 18.9552 235 20.743C234.103 22.5309 234.104 22.5309 234.104 22.5309C234.104 22.5309 234.104 22.531 234.104 22.531C234.104 22.531 234.104 22.531 234.104 22.531C234.104 22.531 234.104 22.531 234.104 22.5309C234.103 22.5306 234.102 22.5302 234.101 22.5295C234.098 22.5282 234.094 22.5259 234.087 22.5228C234.075 22.5165 234.055 22.5067 234.028 22.4934C233.974 22.4669 233.892 22.4266 233.782 22.3733C233.563 22.2667 233.232 22.1083 232.798 21.9047C231.928 21.4974 230.641 20.9096 228.983 20.1941L229.775 18.3578Z" fill="#533C25"/>
</svg>
