<svg width="237" height="44" viewBox="0 0 237 44" fill="none" xmlns="http://www.w3.org/2000/svg">
<path d="M102.167 19.0706L103.33 20.6973L102.167 19.0706ZM236.231 20.1127C236.58 21.161 236.012 22.293 234.964 22.6411L217.881 28.3136C216.833 28.6617 215.701 28.0941 215.352 27.0458C215.004 25.9975 215.572 24.8655 216.62 24.5174L231.805 19.4752L226.763 4.29048C226.415 3.2422 226.982 2.11021 228.031 1.76211C229.079 1.41402 230.211 1.98164 230.559 3.02993L236.231 20.1127ZM1 35.0468C1.8323 33.2282 1.83211 33.2281 1.83192 33.228C1.83187 33.228 1.83169 33.2279 1.83159 33.2279C1.83138 33.2278 1.83121 33.2277 1.83107 33.2277C1.83079 33.2275 1.83065 33.2275 1.83065 33.2275C1.83064 33.2275 1.83117 33.2277 1.83224 33.2282C1.83438 33.2292 1.83867 33.2311 1.8451 33.234C1.85798 33.2398 1.87942 33.2493 1.90932 33.2625C1.96913 33.2888 2.06278 33.3295 2.18944 33.3829C2.44276 33.4898 2.82803 33.6477 3.33852 33.8439C4.35962 34.2363 5.88094 34.7816 7.84881 35.3782L7.26859 37.2922L6.68837 39.2062C4.62088 38.5794 3.0079 38.0021 1.90355 37.5776C1.35131 37.3654 0.926062 37.1913 0.634553 37.0683C0.488792 37.0068 0.376446 36.9581 0.298362 36.9237C0.259319 36.9066 0.228838 36.893 0.207026 36.8832C0.19612 36.8783 0.187381 36.8743 0.180821 36.8714C0.177542 36.8699 0.174807 36.8686 0.172619 36.8676C0.171525 36.8671 0.170567 36.8667 0.169747 36.8663C0.169336 36.8661 0.16896 36.866 0.168619 36.8658C0.168448 36.8657 0.168217 36.8656 0.168132 36.8656C0.167909 36.8655 0.167696 36.8654 1 35.0468ZM20.2698 40.206L20.5718 38.229C24.4413 38.8201 28.8149 39.2532 33.6037 39.36L33.5592 41.3595L33.5146 43.359C28.5393 43.2481 23.9933 42.798 19.9678 42.1831L20.2698 40.206ZM46.902 40.807L46.6926 38.818C50.809 38.3848 55.1209 37.6818 59.5902 36.6354L60.0461 38.5828L60.502 40.5301C55.8637 41.6161 51.3867 42.3461 47.1113 42.7961L46.902 40.807ZM72.8261 34.754L72.1379 32.8761C76.0626 31.4378 80.0736 29.7157 84.1488 27.6672L85.0471 29.4542L85.9453 31.2411C81.7325 33.3587 77.5812 35.1414 73.5143 36.6319L72.8261 34.754ZM96.6378 22.825L95.5557 21.143C97.3636 19.9799 99.18 18.748 101.003 17.4439L102.167 19.0706L103.33 20.6973C101.454 22.0394 99.5833 23.3081 97.7199 24.5069L96.6378 22.825ZM102.167 19.0706L101.003 17.4439C102.62 16.2871 104.261 15.2006 105.922 14.1813L106.968 15.886L108.014 17.5907C106.432 18.5613 104.87 19.5958 103.33 20.6973L102.167 19.0706ZM117.176 10.5651L116.376 8.73223C120.013 7.144 123.714 5.82428 127.449 4.74318L128.005 6.66435L128.561 8.58551C124.983 9.62099 121.447 10.8828 117.976 12.3981L117.176 10.5651ZM139.234 4.1302L138.907 2.1572C142.789 1.51268 146.681 1.08773 150.553 0.849979L150.676 2.84622L150.798 4.84246C147.053 5.07241 143.299 5.48284 139.562 6.1032L139.234 4.1302ZM162.19 2.66973L162.247 0.670547C166.19 0.783283 170.084 1.06203 173.896 1.47136L173.683 3.45993L173.469 5.4485C169.752 5.04941 165.963 4.77843 162.133 4.66891L162.19 2.66973ZM185.09 5.09204L185.44 3.12289C189.384 3.82365 193.195 4.63692 196.833 5.51731L196.363 7.46121L195.892 9.40511C192.327 8.54237 188.597 7.74641 184.741 7.0612L185.09 5.09204ZM207.477 10.4891L208.057 8.57486C212.099 9.79828 215.802 11.0508 219.086 12.2429L218.404 14.1229L217.721 16.0029C214.498 14.833 210.864 13.6038 206.898 12.4034L207.477 10.4891ZM229.108 18.3578L229.901 16.5215C231.599 17.2542 232.924 17.8589 233.828 18.2823C234.28 18.4939 234.626 18.6603 234.862 18.7747C234.98 18.8319 235.07 18.8761 235.132 18.9064C235.162 18.9216 235.186 18.9333 235.202 18.9415C235.211 18.9456 235.217 18.9488 235.222 18.9511C235.224 18.9522 235.226 18.9531 235.227 18.9538C235.228 18.9542 235.228 18.9544 235.229 18.9547C235.229 18.9548 235.229 18.9549 235.229 18.955C235.229 18.955 235.23 18.9551 235.23 18.9551C235.23 18.9552 235.23 18.9552 234.333 20.743C233.437 22.5309 233.437 22.5309 233.437 22.5309C233.437 22.5309 233.437 22.531 233.437 22.531C233.437 22.531 233.437 22.531 233.437 22.531C233.437 22.531 233.437 22.531 233.437 22.5309C233.436 22.5306 233.436 22.5302 233.434 22.5295C233.432 22.5282 233.427 22.5259 233.421 22.5228C233.408 22.5165 233.388 22.5067 233.361 22.4934C233.308 22.4669 233.225 22.4266 233.116 22.3733C232.896 22.2667 232.566 22.1083 232.131 21.9047C231.262 21.4974 229.974 20.9096 228.316 20.1941L229.108 18.3578ZM102.167 19.0706L103.33 20.6973L102.167 19.0706ZM236.231 20.1127C236.58 21.161 236.012 22.293 234.964 22.6411L217.881 28.3136C216.833 28.6617 215.701 28.0941 215.352 27.0458C215.004 25.9975 215.572 24.8655 216.62 24.5174L231.805 19.4752L226.763 4.29048C226.415 3.2422 226.982 2.11021 228.031 1.76211C229.079 1.41402 230.211 1.98164 230.559 3.02993L236.231 20.1127ZM1 35.0468C1.8323 33.2282 1.83211 33.2281 1.83192 33.228C1.83187 33.228 1.83169 33.2279 1.83159 33.2279C1.83138 33.2278 1.83121 33.2277 1.83107 33.2277C1.83079 33.2275 1.83065 33.2275 1.83065 33.2275C1.83064 33.2275 1.83117 33.2277 1.83224 33.2282C1.83438 33.2292 1.83867 33.2311 1.8451 33.234C1.85798 33.2398 1.87942 33.2493 1.90932 33.2625C1.96913 33.2888 2.06278 33.3295 2.18944 33.3829C2.44276 33.4898 2.82803 33.6477 3.33852 33.8439C4.35962 34.2363 5.88094 34.7816 7.84881 35.3782L7.26859 37.2922L6.68837 39.2062C4.62088 38.5794 3.0079 38.0021 1.90355 37.5776C1.35131 37.3654 0.926062 37.1913 0.634553 37.0683C0.488792 37.0068 0.376446 36.9581 0.298362 36.9237C0.259319 36.9066 0.228838 36.893 0.207026 36.8832C0.19612 36.8783 0.187381 36.8743 0.180821 36.8714C0.177542 36.8699 0.174807 36.8686 0.172619 36.8676C0.171525 36.8671 0.170567 36.8667 0.169747 36.8663C0.169336 36.8661 0.16896 36.866 0.168619 36.8658C0.168448 36.8657 0.168217 36.8656 0.168132 36.8656C0.167909 36.8655 0.167696 36.8654 1 35.0468ZM20.2698 40.206L20.5718 38.229C24.4413 38.8201 28.8149 39.2532 33.6037 39.36L33.5592 41.3595L33.5146 43.359C28.5393 43.2481 23.9933 42.798 19.9678 42.1831L20.2698 40.206ZM46.902 40.807L46.6926 38.818C50.809 38.3848 55.1209 37.6818 59.5902 36.6354L60.0461 38.5828L60.502 40.5301C55.8637 41.6161 51.3867 42.3461 47.1113 42.7961L46.902 40.807ZM72.8261 34.754L72.1379 32.8761C76.0626 31.4378 80.0736 29.7157 84.1488 27.6672L85.0471 29.4542L85.9453 31.2411C81.7325 33.3587 77.5812 35.1414 73.5143 36.6319L72.8261 34.754ZM96.6378 22.825L95.5557 21.143C97.3636 19.9799 99.18 18.748 101.003 17.4439L102.167 19.0706L103.33 20.6973C101.454 22.0394 99.5833 23.3081 97.7199 24.5069L96.6378 22.825ZM102.167 19.0706L101.003 17.4439C102.62 16.2871 104.261 15.2006 105.922 14.1813L106.968 15.886L108.014 17.5907C106.432 18.5613 104.87 19.5958 103.33 20.6973L102.167 19.0706ZM117.176 10.5651L116.376 8.73223C120.013 7.144 123.714 5.82428 127.449 4.74318L128.005 6.66435L128.561 8.58551C124.983 9.62099 121.447 10.8828 117.976 12.3981L117.176 10.5651ZM139.234 4.1302L138.907 2.1572C142.789 1.51268 146.681 1.08773 150.553 0.849979L150.676 2.84622L150.798 4.84246C147.053 5.07241 143.299 5.48284 139.562 6.1032L139.234 4.1302ZM162.19 2.66973L162.247 0.670547C166.19 0.783283 170.084 1.06203 173.896 1.47136L173.683 3.45993L173.469 5.4485C169.752 5.04941 165.963 4.77843 162.133 4.66891L162.19 2.66973ZM185.09 5.09204L185.44 3.12289C189.384 3.82365 193.195 4.63692 196.833 5.51731L196.363 7.46121L195.892 9.40511C192.327 8.54237 188.597 7.74641 184.741 7.0612L185.09 5.09204ZM207.477 10.4891L208.057 8.57486C212.099 9.79828 215.802 11.0508 219.086 12.2429L218.404 14.1229L217.721 16.0029C214.498 14.833 210.864 13.6038 206.898 12.4034L207.477 10.4891ZM229.108 18.3578L229.901 16.5215C231.599 17.2542 232.924 17.8589 233.828 18.2823C234.28 18.4939 234.626 18.6603 234.862 18.7747C234.98 18.8319 235.07 18.8761 235.132 18.9064C235.162 18.9216 235.186 18.9333 235.202 18.9415C235.211 18.9456 235.217 18.9488 235.222 18.9511C235.224 18.9522 235.226 18.9531 235.227 18.9538C235.228 18.9542 235.228 18.9544 235.229 18.9547C235.229 18.9548 235.229 18.9549 235.229 18.955C235.229 18.955 235.23 18.9551 235.23 18.9551C235.23 18.9552 235.23 18.9552 234.333 20.743C233.437 22.5309 233.437 22.5309 233.437 22.5309C233.437 22.5309 233.437 22.531 233.437 22.531C233.437 22.531 233.437 22.531 233.437 22.531C233.437 22.531 233.437 22.531 233.437 22.5309C233.436 22.5306 233.436 22.5302 233.434 22.5295C233.432 22.5282 233.427 22.5259 233.421 22.5228C233.408 22.5165 233.388 22.5067 233.361 22.4934C233.308 22.4669 233.225 22.4266 233.116 22.3733C232.896 22.2667 232.566 22.1083 232.131 21.9047C231.262 21.4974 229.974 20.9096 228.316 20.1941L229.108 18.3578Z" fill="#533C25"/>
</svg>
