<svg width="40" height="40" viewBox="0 0 40 40" fill="none" xmlns="http://www.w3.org/2000/svg">
<path d="M11.4488 14.2947H5.02473C4.73963 14.2947 4.50861 14.5258 4.50861 14.8108V35.4485C4.50861 35.7336 4.73963 35.9647 5.02473 35.9647H11.4488C11.7339 35.9647 11.9649 35.7336 11.9649 35.4485V14.8108C11.9649 14.5258 11.7339 14.2947 11.4488 14.2947Z" fill="#C4AA8D"/>
<path d="M8.23907 4.03516C5.90163 4.03516 4 5.93472 4 8.26958C4 10.6055 5.90163 12.5058 8.23907 12.5058C10.5747 12.5058 12.4747 10.6054 12.4747 8.26958C12.4748 5.93472 10.5747 4.03516 8.23907 4.03516Z" fill="#C4AA8D"/>
<path d="M27.7888 13.7817C25.2087 13.7817 23.3013 14.8909 22.1445 16.1512V14.8108C22.1445 14.5258 21.9135 14.2947 21.6284 14.2947H15.4762C15.1911 14.2947 14.9601 14.5258 14.9601 14.8108V35.4485C14.9601 35.7336 15.1911 35.9647 15.4762 35.9647H21.8862C22.1713 35.9647 22.4024 35.7336 22.4024 35.4485V25.2376C22.4024 21.7968 23.337 20.4563 25.7355 20.4563C28.3477 20.4563 28.5553 22.6053 28.5553 25.4147V35.4486C28.5553 35.7337 28.7864 35.9648 29.0715 35.9648H35.4839C35.769 35.9648 36 35.7337 36 35.4486V24.1285C36 19.0121 35.0244 13.7817 27.7888 13.7817Z" fill="#C4AA8D"/>
</svg>
