<svg width="300" height="50" viewBox="0 0 300 50" fill="none" xmlns="http://www.w3.org/2000/svg">
<path fill-rule="evenodd" clip-rule="evenodd" d="M34.0104 37.8094C33.9614 36.4853 33.285 35.9079 30.916 35.0734C30.6905 34.994 30.5586 34.9655 30.3557 34.9216C30.1973 34.8874 29.9957 34.8438 29.6727 34.7593C28.0532 34.3361 27.8828 34.28 27.3091 33.803C26.9888 33.5367 27.5723 32.9224 28.0665 32.4021C28.0853 32.3823 28.104 32.3626 28.1225 32.3431H39.9292C40.7905 32.3431 41.4887 33.0414 41.4887 33.9027V34.4399C41.4887 42.7564 34.7468 49.4984 26.4302 49.4984C18.1136 49.4984 11.3717 42.7564 11.3717 34.4399V33.9027C11.3717 33.0414 12.0699 32.3431 12.9313 32.3431L23.5764 32.3431C22.7671 32.7978 22.2139 33.4471 21.9167 34.2908C21.7762 34.6896 21.7644 35.0397 21.893 35.4436C22.0486 35.8346 23.0338 36.3582 23.5577 36.6172C23.5577 36.6172 24.918 37.1873 25.7477 37.4796C26.7007 37.8152 27.9604 37.9943 27.9604 37.9943C28.1391 38.0213 28.2987 38.0429 28.4402 38.0621C29.2109 38.1664 29.4432 38.1978 29.2889 38.6358C29.1063 39.1543 28.6592 39.5908 27.9475 39.9454C27.256 40.307 26.4741 40.6368 25.6019 40.9347C24.7497 41.2398 23.8945 41.5214 23.0364 41.7794C22.1982 42.0446 21.5549 42.3335 21.1062 42.6462C20.4466 43.106 20.2785 44.0393 20.2785 44.0393C20.2785 44.0393 20.1154 44.6825 20.4832 45.1838C20.7272 45.5163 21.1649 45.9394 21.7963 46.4532C22.4348 46.9471 23.2459 47.3673 24.2296 47.7138C26.6588 48.5694 28.9615 48.6632 31.1376 47.9952C32.1242 47.6927 32.9836 47.2714 33.7786 46.774C34.8129 46.1267 35.2259 45.8587 35.6303 45.5182C36.2616 44.9866 37.3131 44.0236 37.2054 43.9857C37.1509 43.9665 36.7648 44.1518 36.2642 44.3921C35.7754 44.6267 35.1774 44.9137 34.6725 45.1138C34.0683 45.3532 33.6808 45.4923 33.0549 45.6672C31.9408 45.9784 31.0712 45.9775 30.1089 45.9766L30.1047 45.9766C29.0216 45.9756 27.7516 45.5632 26.9485 45.2803C26.1936 45.0144 26.1268 44.9675 25.7891 44.7303C25.7676 44.7152 25.7449 44.6993 25.7209 44.6825C25.3208 44.4026 25.1199 44.1234 25.5694 43.9101C25.8137 43.7998 26.1225 43.6695 26.4778 43.5196C28.1384 42.819 30.8136 41.6902 32.6604 40.1791C33.5084 39.4853 34.0303 38.3453 34.0104 37.8094Z" fill="#533C25"/>
<path fill-rule="evenodd" clip-rule="evenodd" d="M1.77355 8.61241L1.77354 8.61243C0.856494 10.34 0.311944 11.3659 0.112228 14.1023C-0.111827 17.1722 0.362114 20.2961 1.24029 22.413C2.26917 24.8933 3.09938 26.2966 5.15663 28.0223C7.16444 29.7066 8.39815 30.3233 11.3078 30.9596C14.1809 31.5878 18.4297 30.2806 20.4889 29.1919C20.4802 29.1083 20.4758 29.0235 20.4758 28.9376C20.4758 27.5975 21.5621 26.5112 22.9022 26.5112C23.2994 26.5112 23.6743 26.6066 24.0052 26.7758C24.0239 26.757 24.0428 26.738 24.062 26.7187C24.6502 26.2347 24.9177 24.5182 24.5875 23.749C24.2572 22.9797 23.9416 22.3755 23.1433 21.9738C22.6054 21.7031 22.2244 21.6023 21.6283 21.6874C21.296 21.7348 21.0846 21.8181 20.8659 21.9538C19.4507 23.3006 17.5379 24.1273 15.4313 24.1273C11.0672 24.1273 7.5348 20.5791 7.5348 16.2095C7.5348 11.8398 11.0672 8.29166 15.4313 8.29166C19.7956 8.29166 23.3279 11.8398 23.3279 16.2095C23.3279 17.0936 23.1832 17.9442 22.9164 18.7385C23.3896 18.2385 23.8095 17.6218 24.0171 17.2375C24.6906 15.9906 24.8625 15.3709 25.153 14.1009C25.6903 11.7518 25.6879 10.095 24.7345 7.83584C23.5354 4.99451 20.3727 3.1107 18.9467 2.46319C17.4669 1.8192 15.9825 1.53016 14.9402 1.45062C11.8803 1.21713 9.11623 2.0466 6.96249 3.23507C4.82684 4.40802 3.92238 5.26836 2.15563 7.88722C2.02175 8.14483 1.89442 8.38472 1.77355 8.61241ZM21.171 16.7877C21.1898 16.5975 21.1994 16.4046 21.1994 16.2095C21.1994 13.0091 18.6138 10.4201 15.4313 10.4201C15.1713 10.4201 14.9152 10.4374 14.6642 10.4709C14.728 10.4884 14.7921 10.5065 14.8565 10.5251C15.7515 10.7625 16.3142 11.0337 16.5446 11.3387L16.7182 16.0446C16.9757 16.2164 17.3611 16.3727 17.8746 16.5133C18.4062 16.6384 18.9746 16.7241 19.5799 16.7703C20.1907 16.8169 20.7211 16.8227 21.171 16.7877ZM10.6421 12.9819C10.0241 13.9037 9.66324 15.0139 9.66324 16.2095C9.66324 16.8951 9.78191 17.5526 9.99969 18.1627C9.99188 17.7104 10.0066 17.2405 10.0438 16.7528C10.1413 15.4751 10.3377 14.2303 10.6331 13.0184C10.6361 13.0062 10.6391 12.994 10.6421 12.9819ZM23.3316 27.4218C23.1951 27.3832 23.0511 27.3625 22.9022 27.3625C22.1013 27.3625 21.44 27.9603 21.3402 28.734C22.3235 28.1992 22.7799 27.9145 23.3316 27.4218ZM49.8721 7.88722C50.006 8.14483 50.1333 8.38473 50.2542 8.61243C51.1712 10.34 51.7158 11.3659 51.9155 14.1023C52.1396 17.1722 51.6656 20.2961 50.7875 22.413C49.7586 24.8933 48.9284 26.2966 46.8711 28.0223C44.8633 29.7066 43.6296 30.3233 40.7199 30.9596C37.8432 31.5886 33.5872 30.2773 31.5309 29.1877C31.5394 29.1055 31.5437 29.022 31.5437 28.9376C31.5437 27.5975 30.4573 26.5112 29.1173 26.5112C28.7223 26.5112 28.3493 26.6055 28.0198 26.773C28.002 26.7551 27.9839 26.737 27.9657 26.7187C27.3775 26.2347 27.11 24.5182 27.4403 23.749C27.7705 22.9797 28.0861 22.3755 28.8844 21.9738C29.4223 21.7031 29.8034 21.6023 30.3995 21.6874C30.711 21.7319 30.9163 21.8079 31.121 21.929C32.5344 23.2902 34.4521 24.1273 36.5668 24.1273C40.9224 24.1273 44.442 20.576 44.442 16.2095C44.442 11.843 40.9224 8.29166 36.5668 8.29166C32.2111 8.29166 28.6915 11.843 28.6915 16.2095C28.6915 17.0878 28.8339 17.9331 29.0969 18.7231C28.6296 18.2259 28.2161 17.6179 28.0107 17.2375C27.3371 15.9906 27.1653 15.3709 26.8748 14.1009C26.3374 11.7518 26.3398 10.095 27.2932 7.83584C28.4924 4.99451 31.6551 3.1107 33.081 2.46319C34.5608 1.8192 36.0452 1.53016 37.0876 1.45062C40.1474 1.21713 42.9115 2.0466 45.0653 3.23507C47.2009 4.40802 48.1054 5.26836 49.8721 7.88722ZM42.0298 18.0118C42.214 17.4448 42.3136 16.8391 42.3136 16.2095C42.3136 15.0629 41.9832 13.9955 41.4137 13.0975C41.6985 14.2844 41.8886 15.5029 41.984 16.7528C42.0171 17.1865 42.0323 17.6061 42.0298 18.0118ZM37.3528 10.4739C37.2925 10.4905 37.232 10.5075 37.1712 10.5251C36.2762 10.7625 35.7135 11.0337 35.4831 11.3387L35.3095 16.0446C35.0521 16.2164 34.6666 16.3727 34.1531 16.5133C33.6215 16.6384 33.0531 16.7241 32.4479 16.7703C31.8332 16.8172 31.2999 16.8228 30.8482 16.7871C30.8295 16.5971 30.82 16.4044 30.82 16.2095C30.82 13.0059 33.3992 10.4201 36.5668 10.4201C36.8333 10.4201 37.0957 10.4384 37.3528 10.4739ZM30.6786 28.7292C29.7003 28.1968 29.2451 27.9123 28.6942 27.42C28.8288 27.3826 28.9707 27.3625 29.1173 27.3625C29.9165 27.3625 30.5767 27.9578 30.6786 28.7292Z" fill="#A5774A"/>
<path d="M36.5666 21.9989C33.3811 21.9989 30.7985 19.4068 30.7985 16.2095C30.7985 13.0122 33.3811 10.4201 36.5666 10.4201C39.7523 10.4201 42.3347 13.0122 42.3347 16.2095C42.3347 19.4068 39.7523 21.9989 36.5666 21.9989Z" fill="#533C25"/>
<path d="M15.4313 21.9989C12.2457 21.9989 9.66317 19.4068 9.66317 16.2095C9.66317 13.0122 12.2457 10.4201 15.4313 10.4201C18.6169 10.4201 21.1993 13.0122 21.1993 16.2095C21.1993 19.4068 18.6169 21.9989 15.4313 21.9989Z" fill="#533C25"/>
<path d="M29.1171 30.5126C28.2472 30.5126 27.542 29.8074 27.542 28.9376C27.542 28.0678 28.2472 27.3625 29.1171 27.3625C29.987 27.3625 30.6921 28.0678 30.6921 28.9376C30.6921 29.8074 29.987 30.5126 29.1171 30.5126Z" fill="#533C25"/>
<path d="M22.9021 30.5126C22.0323 30.5126 21.3271 29.8074 21.3271 28.9376C21.3271 28.0678 22.0323 27.3625 22.9021 27.3625C23.772 27.3625 24.4772 28.0678 24.4772 28.9376C24.4772 29.8074 23.772 30.5126 22.9021 30.5126Z" fill="#533C25"/>
<path d="M87.7516 35.3698V41.8062C86.1169 42.1467 84.5163 42.4022 82.9498 42.5724C81.3833 42.7427 79.5273 42.8279 77.3818 42.8279C74.6233 42.8279 72.2906 42.5895 70.3835 42.1127C68.5104 41.6359 66.995 40.8016 65.8371 39.6096C64.7133 38.3837 63.896 36.6639 63.3851 34.4503C62.8743 32.2367 62.6189 29.3931 62.6189 25.9195C62.6189 22.5821 62.8743 19.8406 63.3851 17.6952C63.896 15.5497 64.7133 13.898 65.8371 12.7402C66.995 11.5482 68.5104 10.7309 70.3835 10.2882C72.2906 9.81141 74.6233 9.57303 77.3818 9.57303C79.5273 9.57303 81.3833 9.65817 82.9498 9.82844C84.5163 9.96466 86.1169 10.2201 87.7516 10.5947V17.2354L87.5983 17.3376C86.168 16.997 84.7888 16.7587 83.4606 16.6224C82.1325 16.4522 80.4978 16.367 78.5567 16.367C76.9902 16.367 75.6961 16.4862 74.6744 16.7246C73.6868 16.9289 72.9035 17.3546 72.3246 18.0017C71.7457 18.6487 71.337 19.6023 71.0986 20.8623C70.8943 22.1223 70.7921 23.8081 70.7921 25.9195C70.7921 28.1331 70.8943 29.921 71.0986 31.2832C71.337 32.6113 71.7457 33.6159 72.3246 34.297C72.9035 34.9781 73.6868 35.4379 74.6744 35.6763C75.6961 35.9147 76.9902 36.0339 78.5567 36.0339C80.4638 36.0339 82.0814 35.9828 83.4095 35.8806C84.7718 35.7444 86.134 35.506 87.4962 35.1654L87.7516 35.3698Z" fill="#533C25"/>
<path d="M98.4789 42.8279H90.3057V17.9506H96.9464L97.6105 23.0589H97.7637C98.0702 21.1518 98.8024 19.7896 99.9603 18.9723C101.118 18.1209 102.838 17.6952 105.12 17.6952C106.039 17.6952 106.873 17.7463 107.623 17.8484C108.372 17.9166 109.002 17.9847 109.513 18.0528V26.0217L109.411 26.1238C108.866 25.9876 108.236 25.8684 107.521 25.7663C106.839 25.6641 106.056 25.613 105.171 25.613C103.911 25.613 102.77 25.8173 101.748 26.226C100.761 26.6347 99.9773 27.435 99.3984 28.6269C98.8535 29.7848 98.5811 31.5216 98.5811 33.8373L98.4789 42.8279Z" fill="#533C25"/>
<path d="M123.305 17.2354C126.574 17.2354 129.214 17.576 131.223 18.2571C133.232 18.9382 134.697 20.1982 135.616 22.0372C136.57 23.8421 137.046 26.4644 137.046 29.9039V42.3681H129.639L129.384 40.0183H129.231C128.584 40.8697 127.579 41.5508 126.217 42.0616C124.855 42.5725 123.084 42.8279 120.904 42.8279C115.013 42.8279 112.067 40.0694 112.067 34.5525C112.067 32.2027 112.833 30.3637 114.366 29.0355C115.932 27.6733 118.384 26.9922 121.722 26.9922H129.282C129.043 25.5619 128.43 24.6084 127.443 24.1316C126.455 23.6208 124.769 23.3654 122.386 23.3654C120.887 23.3654 119.406 23.4846 117.941 23.7229C116.511 23.9273 115.251 24.1657 114.161 24.4381L114.008 24.3359L114.059 18.4103C114.74 18.206 115.609 18.0187 116.664 17.8484C117.72 17.6441 118.827 17.4909 119.985 17.3887C121.177 17.2865 122.283 17.2354 123.305 17.2354ZM122.999 36.8001C125.11 36.8001 126.694 36.5447 127.749 36.0339C128.805 35.489 129.35 34.6376 129.384 33.4797V32.2027H123.612C122.113 32.2027 121.057 32.424 120.444 32.8667C119.866 33.2754 119.576 33.8373 119.576 34.5525C119.576 35.4039 119.883 35.9998 120.496 36.3404C121.109 36.6469 121.943 36.8001 122.999 36.8001Z" fill="#533C25"/>
<path d="M139.6 24.5913V17.9506H143.227V16.6735C143.227 13.3021 144.011 10.8842 145.577 9.41979C147.144 7.92136 149.476 7.17215 152.575 7.17215C153.665 7.17215 154.67 7.27431 155.589 7.47864C156.509 7.64892 157.309 7.85325 157.99 8.09164V13.8129L157.837 13.9151C157.224 13.847 156.611 13.7959 155.998 13.7618C155.385 13.6937 154.806 13.6596 154.261 13.6596C153.103 13.6596 152.286 13.881 151.809 14.3237C151.367 14.7324 151.145 15.3794 151.145 16.2649V17.9506H157.99V24.5913H151.145V42.8279H143.227V24.5913H139.6Z" fill="#533C25"/>
<path d="M163.609 34.91V24.1827H160.544V17.5419H164.376L165.908 11.4631H171.783V17.5419H177.351V24.1827H171.783V33.1221C171.783 34.0757 171.902 34.7397 172.14 35.1144C172.378 35.4549 172.923 35.6252 173.775 35.6252C174.32 35.6252 174.899 35.6082 175.512 35.5741C176.125 35.506 176.738 35.4379 177.351 35.3698L177.504 35.4719V42.1127C175.869 42.5895 173.707 42.8278 171.016 42.8278C168.326 42.8278 166.419 42.2148 165.295 40.9889C164.171 39.7629 163.609 37.7366 163.609 34.91Z" fill="#533C25"/>
<path d="M191.96 24.6935H180.875V18.1038H202.687V23.9783L191.654 36.136V36.2382H203.505V42.8278H180.058V37.4642L191.96 24.7957V24.6935Z" fill="#A5774A"/>
<path d="M231.192 35.3698V41.8062C229.557 42.1467 227.956 42.4022 226.39 42.5724C224.823 42.7427 222.967 42.8279 220.822 42.8279C218.063 42.8279 215.731 42.5895 213.824 42.1127C211.95 41.6359 210.435 40.8016 209.277 39.6096C208.153 38.3837 207.336 36.6639 206.825 34.4503C206.314 32.2367 206.059 29.3931 206.059 25.9195C206.059 22.5821 206.314 19.8406 206.825 17.6952C207.336 15.5497 208.153 13.898 209.277 12.7402C210.435 11.5482 211.95 10.7309 213.824 10.2882C215.731 9.81141 218.063 9.57303 220.822 9.57303C222.967 9.57303 224.823 9.65817 226.39 9.82844C227.956 9.96466 229.557 10.2201 231.192 10.5947V17.2354L231.038 17.3376C229.608 16.997 228.229 16.7587 226.901 16.6224C225.573 16.4522 223.938 16.367 221.997 16.367C220.43 16.367 219.136 16.4862 218.114 16.7246C217.127 16.9289 216.344 17.3546 215.765 18.0017C215.186 18.6487 214.777 19.6023 214.539 20.8623C214.334 22.1223 214.232 23.8081 214.232 25.9195C214.232 28.1331 214.334 29.921 214.539 31.2832C214.777 32.6113 215.186 33.6159 215.765 34.297C216.344 34.9781 217.127 35.4379 218.114 35.6763C219.136 35.9147 220.43 36.0339 221.997 36.0339C223.904 36.0339 225.521 35.9828 226.85 35.8806C228.212 35.7444 229.574 35.506 230.936 35.1654L231.192 35.3698Z" fill="#533C25"/>
<path d="M244.984 17.2354C248.253 17.2354 250.893 17.576 252.902 18.2571C254.911 18.9382 256.375 20.1982 257.295 22.0372C258.249 23.8421 258.725 26.4644 258.725 29.9039V42.3681H251.318L251.063 40.0183H250.91C250.263 40.8697 249.258 41.5508 247.896 42.0616C246.534 42.5725 244.763 42.8279 242.583 42.8279C236.692 42.8279 233.746 40.0694 233.746 34.5525C233.746 32.2027 234.512 30.3637 236.045 29.0355C237.611 27.6733 240.063 26.9922 243.4 26.9922H250.961C250.722 25.5619 250.109 24.6084 249.122 24.1316C248.134 23.6208 246.448 23.3654 244.065 23.3654C242.566 23.3654 241.085 23.4846 239.62 23.7229C238.19 23.9273 236.93 24.1657 235.84 24.4381L235.687 24.3359L235.738 18.4103C236.419 18.206 237.288 18.0187 238.343 17.8484C239.399 17.6441 240.506 17.4909 241.664 17.3887C242.856 17.2865 243.962 17.2354 244.984 17.2354ZM244.678 36.8001C246.789 36.8001 248.373 36.5447 249.428 36.0339C250.484 35.489 251.029 34.6376 251.063 33.4797V32.2027H245.291C243.792 32.2027 242.736 32.424 242.123 32.8667C241.544 33.2754 241.255 33.8373 241.255 34.5525C241.255 35.4039 241.561 35.9998 242.174 36.3404C242.787 36.6469 243.622 36.8001 244.678 36.8001Z" fill="#533C25"/>
<path d="M269.453 42.8279H261.279V17.9506H267.92L268.584 23.0589H268.737C269.044 21.1518 269.776 19.7896 270.934 18.9723C272.092 18.1209 273.812 17.6952 276.093 17.6952C277.013 17.6952 277.847 17.7463 278.596 17.8484C279.346 17.9166 279.976 17.9847 280.486 18.0528V26.0217L280.384 26.1238C279.839 25.9876 279.209 25.8684 278.494 25.7663C277.813 25.6641 277.03 25.613 276.144 25.613C274.884 25.613 273.743 25.8173 272.722 26.226C271.734 26.6347 270.951 27.435 270.372 28.6269C269.827 29.7848 269.555 31.5216 269.555 33.8373L269.453 42.8279Z" fill="#533C25"/>
<path d="M286.105 34.91V24.1827H283.041V17.5419H286.872L288.404 11.4631H294.279V17.5419H299.847V24.1827H294.279V33.1221C294.279 34.0757 294.398 34.7397 294.636 35.1144C294.875 35.4549 295.42 35.6252 296.271 35.6252C296.816 35.6252 297.395 35.6082 298.008 35.5741C298.621 35.506 299.234 35.4379 299.847 35.3698L300 35.4719V42.1127C298.365 42.5895 296.203 42.8278 293.512 42.8278C290.822 42.8278 288.915 42.2148 287.791 40.9889C286.667 39.7629 286.105 37.7366 286.105 34.91Z" fill="#533C25"/>
</svg>
