<svg width="919" height="692" viewBox="0 0 919 692" fill="none" xmlns="http://www.w3.org/2000/svg">
<g clip-path="url(#clip0_243_299)">
<path opacity="0.58" d="M1097.19 1197L1097.19 0.0212013C1053.55 -0.731139 1009.76 18.6793 982.079 52.3843C920.687 127.318 945.063 250.552 876.6 319.015C836.575 359.04 775.485 368.519 718.909 369.572C662.333 370.475 603.951 365.359 550.384 384.168C449.419 419.679 393.144 548.329 435.576 646.585C455.288 692.177 491.25 728.44 518.485 769.819C545.719 811.349 564.378 864.615 544.365 910.056C503.739 1002.29 350.561 983.635 296.694 1068.8C272.468 1107.02 277.584 1157.13 300.455 1196.85L1097.19 1196.85L1097.19 1197Z" fill="url(#paint0_radial_243_299)"/>
<path opacity="0.6" d="M1097.19 1197L1097.19 85.7884C952.888 171.706 836.425 304.419 772.325 459.703C742.382 532.229 712.589 620.253 636.903 641.77C574.609 659.375 511.864 621.608 453.332 594.072C394.649 566.536 314.449 552.542 273.672 602.799C201.296 692.177 352.217 841.442 280.593 931.423C235.453 988.149 143.366 964.827 77.6111 995.071C6.28891 1028.02 -17.0337 1124.02 12.4582 1197L1097.19 1197Z" fill="url(#paint1_radial_243_299)"/>
</g>
<defs>
<radialGradient id="paint0_radial_243_299" cx="0" cy="0" r="1" gradientUnits="userSpaceOnUse" gradientTransform="translate(942.133 1039.01) scale(1359.04 1359.04)">
<stop offset="0.630208" stop-color="#FFEDDD"/>
<stop offset="1" stop-color="white"/>
</radialGradient>
<radialGradient id="paint1_radial_243_299" cx="0" cy="0" r="1" gradientUnits="userSpaceOnUse" gradientTransform="translate(1008.34 1087.16) scale(1282.01 1282.01)">
<stop stop-color="#FFEAD6"/>
<stop offset="0.0001" stop-color="#FFE6CF"/>
<stop offset="0.869792" stop-color="#FFE8D3"/>
</radialGradient>
<clipPath id="clip0_243_299">
<rect width="919" height="692" fill="white"/>
</clipPath>
</defs>
</svg>
